<?xml version="1.0" encoding="UTF-8" standalone="no"?>
<!DOCTYPE svg PUBLIC "-//W3C//DTD SVG 1.1//EN" "http://www.w3.org/Graphics/SVG/1.1/DTD/svg11.dtd">
<svg width="100%" height="100%" viewBox="0 0 991 991" version="1.1" xmlns="http://www.w3.org/2000/svg" xmlns:xlink="http://www.w3.org/1999/xlink" xml:space="preserve" xmlns:serif="http://www.serif.com/" style="fill-rule:evenodd;clip-rule:evenodd;stroke-linecap:round;stroke-linejoin:round;stroke-miterlimit:1.5;">
    <g transform="matrix(1,0,0,1,-15,-1217)">
        <g id="Artboard2" transform="matrix(1,0,0,1,-0.749018,-0.822483)">
            <rect x="15.749" y="1217.82" width="990.711" height="990.711" style="fill:none;"/>
            <clipPath id="_clip1">
                <rect x="15.749" y="1217.82" width="990.711" height="990.711"/>
            </clipPath>
            <g clip-path="url(#_clip1)">
                <g transform="matrix(1,0,0,1,0.749018,0.822483)">
                    <rect x="0" y="1180.7" width="1076.75" height="1103.06" style="fill:rgb(43,43,43);stroke:white;stroke-width:12px;"/>
                </g>
                <g transform="matrix(1,0,0,1,0.749018,1200.65)">
                    <g transform="matrix(0.946449,0,0,0.946449,27.3702,27.4904)">
                        <g>
                            <path d="M508.293,26.234C501.842,41.067 483.561,63.366 432.367,81.187C341.909,112.678 372.563,182.858 376.071,181.461C515.268,126.002 647.299,181.461 647.299,181.461C647.72,185.213 681.902,111.383 591.003,81.187C539.391,64.042 521.206,41.539 514.891,26.478L531.6,7.511C531.6,7.511 531.993,9.454 531.966,12.853C533.639,18.46 544.113,44.457 597.331,62.136C637.267,75.402 656.73,96.45 666.144,116.617C681.457,149.424 670.013,182.23 666.022,189.771C661.755,197.834 655.719,199.968 653.958,200.574C647.751,202.711 642.468,201.777 638.025,199.37C623.544,193.715 506.486,151.111 383.502,200.11C379.532,201.692 374.957,202.224 369.825,200.616C367.4,199.855 364.095,198.373 360.841,195.017C358.968,193.085 355.663,188.58 353.065,181.552C347.718,167.086 343.027,137.541 360.856,109.043C371.652,91.786 391.047,74.315 425.767,62.228C479.897,43.384 490.025,17.151 491.46,12.301C491.438,9.13 491.793,7.341 491.793,7.341L508.293,26.234ZM667.088,178.085C667.152,178.461 667.206,178.84 667.249,179.223L667.088,178.085C666.127,172.448 662.812,167.522 658.032,164.508C660.063,165.676 662.137,167.307 663.819,169.67C665.341,171.808 666.541,174.546 667.088,178.085Z" style="fill:white;"/>
                            <g transform="matrix(1,0,0,-1,0,1026.7)">
                                <path d="M491.46,12.301C490.025,17.151 479.897,43.384 425.767,62.228C391.047,74.315 371.652,91.786 360.856,109.043C343.027,137.541 347.718,167.086 353.065,181.552C355.663,188.58 358.968,193.085 360.841,195.017C364.095,198.373 367.4,199.855 369.825,200.616C374.957,202.224 379.532,201.692 383.502,200.11C505.876,151.354 622.382,193.294 637.801,199.282L637.797,199.28C638.474,199.623 639.137,199.919 639.769,200.177C642.307,201.214 657.723,205.452 666.022,189.771C670.013,182.23 681.457,149.424 666.144,116.617C656.73,96.45 637.267,75.402 597.331,62.136C544.113,44.457 533.639,18.46 531.966,12.853C531.993,9.454 531.6,7.511 531.6,7.511L511.685,-10.033L491.793,7.341C491.793,7.341 491.438,9.13 491.46,12.301ZM511.663,13.49C511.843,11.284 511.685,10.042 511.685,10.042C511.685,10.042 511.516,11.287 511.663,13.49C510.836,24.068 502.379,56.814 432.367,81.187C341.909,112.678 372.563,182.858 376.071,181.461C515.268,126.002 647.299,181.461 647.299,181.461C647.72,185.213 681.902,111.383 591.003,81.187C520.371,57.724 512.342,24.226 511.663,13.49ZM667.121,178.288L667.249,179.223C667.213,178.909 667.171,178.598 667.121,178.288C666.25,172.502 663.527,168.927 660.785,166.594C662.568,168.21 664.046,170.134 665.146,172.271C666.108,174.136 666.782,176.163 667.121,178.288Z" style="fill:white;"/>
                            </g>
                        </g>
                        <g transform="matrix(0.707107,0.707107,-0.707107,0.707107,512.693,-211.049)">
                            <path d="M512.156,17.435L525.88,24.237L531.6,7.511C531.6,7.511 531.993,9.454 531.966,12.853C533.639,18.46 544.113,44.457 597.331,62.136C637.267,75.402 656.73,96.45 666.144,116.617C681.457,149.424 670.013,182.23 666.022,189.771C661.755,197.834 655.719,199.968 653.958,200.574C647.751,202.711 642.468,201.777 638.025,199.37C623.544,193.715 506.486,151.111 383.502,200.11C379.532,201.692 374.957,202.224 369.825,200.616C367.4,199.855 364.095,198.373 360.841,195.017C358.968,193.085 355.663,188.58 353.065,181.552C347.718,167.086 343.027,137.541 360.856,109.043C371.652,91.786 391.047,74.315 425.767,62.228C479.897,43.384 490.025,17.151 491.46,12.301C491.438,9.13 491.793,7.341 491.793,7.341L511.2,16.961C508.753,30.037 495.923,59.062 432.367,81.187C341.909,112.678 372.563,182.858 376.071,181.461C515.268,126.002 647.299,181.461 647.299,181.461C647.72,185.213 681.902,111.383 591.003,81.187C527.549,60.108 514.62,30.93 512.156,17.435ZM667.088,178.085C667.152,178.461 667.206,178.84 667.249,179.223L667.088,178.085C666.127,172.448 662.812,167.522 658.032,164.508C660.063,165.676 662.137,167.307 663.819,169.67C665.341,171.808 666.541,174.546 667.088,178.085Z" style="fill:white;"/>
                            <g transform="matrix(1,0,0,-1,0,1026.7)">
                                <path d="M491.46,12.301C490.025,17.151 479.897,43.384 425.767,62.228C391.047,74.315 371.652,91.786 360.856,109.043C343.027,137.541 347.718,167.086 353.065,181.552C355.663,188.58 358.968,193.085 360.841,195.017C364.095,198.373 367.4,199.855 369.825,200.616C374.957,202.224 379.532,201.692 383.502,200.11C505.876,151.354 622.382,193.294 637.801,199.282L637.797,199.28C638.474,199.623 639.137,199.919 639.769,200.177C642.307,201.214 657.723,205.452 666.022,189.771C670.013,182.23 681.457,149.424 666.144,116.617C656.73,96.45 637.267,75.402 597.331,62.136C544.113,44.457 533.639,18.46 531.966,12.853C531.993,9.454 531.6,7.511 531.6,7.511C531.039,3.096 529.027,-1.006 525.88,-4.153L491.793,7.341C491.793,7.341 491.438,9.13 491.46,12.301ZM511.663,13.49C511.843,11.284 511.685,10.042 511.685,10.042C511.685,10.042 511.516,11.287 511.663,13.49C510.836,24.068 502.379,56.814 432.367,81.187C341.909,112.678 372.563,182.858 376.071,181.461C515.268,126.002 647.299,181.461 647.299,181.461C647.72,185.213 681.902,111.383 591.003,81.187C520.371,57.724 512.342,24.226 511.663,13.49ZM667.121,178.288L667.249,179.223C667.213,178.909 667.171,178.598 667.121,178.288C666.25,172.502 663.527,168.927 660.785,166.594C662.568,168.21 664.046,170.134 665.146,172.271C666.108,174.136 666.782,176.163 667.121,178.288Z" style="fill:white;"/>
                            </g>
                        </g>
                        <g transform="matrix(2.22045e-16,1,-1,2.22045e-16,1024.45,2.24583)">
                            <path d="M638.025,199.37C623.544,193.715 506.486,151.111 383.502,200.11C379.532,201.692 374.957,202.224 369.825,200.616C367.4,199.855 364.095,198.373 360.841,195.017C358.968,193.085 355.663,188.58 353.065,181.552C347.718,167.086 343.027,137.541 360.856,109.043C371.652,91.786 391.047,74.315 425.767,62.228C479.897,43.384 490.025,17.151 491.46,12.301C491.438,9.13 491.793,7.341 491.793,7.341L531.76,10.042L531.6,7.511C531.6,7.511 531.993,9.454 531.966,12.853C533.639,18.46 544.113,44.457 597.331,62.136C637.267,75.402 656.73,96.45 666.144,116.617C681.457,149.424 670.013,182.23 666.022,189.771C661.755,197.834 655.719,199.968 653.958,200.574C647.751,202.711 642.468,201.777 638.025,199.37ZM667.088,178.085C667.152,178.461 667.206,178.84 667.249,179.223L667.088,178.085C666.127,172.448 662.812,167.522 658.032,164.508C660.063,165.676 662.137,167.307 663.819,169.67C665.341,171.808 666.541,174.546 667.088,178.085ZM511.663,13.49C510.836,24.068 502.379,56.814 432.367,81.187C341.909,112.678 372.563,182.858 376.071,181.461C515.268,126.002 647.299,181.461 647.299,181.461C647.72,185.213 681.902,111.383 591.003,81.187C520.371,57.724 512.342,24.226 511.663,13.49ZM511.663,13.49C511.843,11.284 511.685,10.042 511.685,10.042C511.685,10.042 511.516,11.287 511.663,13.49Z" style="fill:white;"/>
                            <g transform="matrix(1,0,0,-1,0,1026.7)">
                                <path d="M491.46,12.301C490.025,17.151 479.897,43.384 425.767,62.228C391.047,74.315 371.652,91.786 360.856,109.043C343.027,137.541 347.718,167.086 353.065,181.552C355.663,188.58 358.968,193.085 360.841,195.017C364.095,198.373 367.4,199.855 369.825,200.616C374.957,202.224 379.532,201.692 383.502,200.11C505.876,151.354 622.382,193.294 637.801,199.282L637.797,199.28C638.474,199.623 639.137,199.919 639.769,200.177C642.307,201.214 657.723,205.452 666.022,189.771C670.013,182.23 681.457,149.424 666.144,116.617C656.73,96.45 637.267,75.402 597.331,62.136C544.113,44.457 533.639,18.46 531.966,12.853C531.993,9.454 531.6,7.511 531.6,7.511L531.614,7.658C530.496,-1.81 522.771,-9.329 513.039,-9.987C502.501,-10.699 493.214,-3.125 491.793,7.341C491.793,7.341 491.438,9.13 491.46,12.301ZM667.121,178.288L667.249,179.223C667.213,178.909 667.171,178.598 667.121,178.288C666.25,172.502 663.527,168.927 660.785,166.594C662.568,168.21 664.046,170.134 665.146,172.271C666.108,174.136 666.782,176.163 667.121,178.288ZM511.663,13.49C510.836,24.068 502.379,56.814 432.367,81.187C341.909,112.678 372.563,182.858 376.071,181.461C515.268,126.002 647.299,181.461 647.299,181.461C647.72,185.213 681.902,111.383 591.003,81.187C520.371,57.724 512.342,24.226 511.663,13.49ZM531.72,8.774L531.723,8.879L531.702,8.583L531.72,8.774ZM511.663,13.49C511.843,11.284 511.685,10.042 511.685,10.042C511.685,10.042 511.516,11.287 511.663,13.49Z" style="fill:white;"/>
                            </g>
                        </g>
                        <g transform="matrix(-0.707107,0.707107,-0.707107,-0.707107,1235.5,514.938)">
                            <path d="M531.6,7.511C531.6,7.511 531.993,9.454 531.966,12.853C533.639,18.46 544.113,44.457 597.331,62.136C637.267,75.402 656.73,96.45 666.144,116.617C681.457,149.424 670.013,182.23 666.022,189.771C661.755,197.834 655.719,199.968 653.958,200.574C647.751,202.711 642.468,201.777 638.025,199.37C623.544,193.715 506.486,151.111 383.502,200.11C379.532,201.692 374.957,202.224 369.825,200.616C367.4,199.855 364.095,198.373 360.841,195.017C358.968,193.085 355.663,188.58 353.065,181.552C347.718,167.086 343.027,137.541 360.856,109.043C371.652,91.786 391.047,74.315 425.767,62.228C479.897,43.384 490.025,17.151 491.46,12.301C491.438,9.13 491.793,7.341 491.793,7.341L525.88,-4.153L531.6,7.511ZM511.663,13.49C510.836,24.068 502.379,56.814 432.367,81.187C341.909,112.678 372.563,182.858 376.071,181.461C515.268,126.002 647.299,181.461 647.299,181.461C647.72,185.213 681.902,111.383 591.003,81.187C520.371,57.724 512.342,24.226 511.663,13.49C511.843,11.284 511.685,10.042 511.685,10.042C511.685,10.042 511.516,11.287 511.663,13.49ZM667.088,178.085C666.127,172.448 662.812,167.522 658.032,164.508C660.063,165.676 662.137,167.307 663.819,169.67C665.341,171.808 666.541,174.546 667.088,178.085C667.152,178.461 667.206,178.84 667.249,179.223L667.088,178.085Z" style="fill:white;"/>
                            <g transform="matrix(1,0,0,-1,0,1026.7)">
                                <path d="M510.759,18.983L491.749,12.378L491.676,11.516L491.668,11.546C491.561,10.164 491.6,8.755 491.793,7.341C491.793,7.341 491.438,9.13 491.46,12.301C490.025,17.151 479.897,43.384 425.767,62.228C391.047,74.315 371.652,91.786 360.856,109.043C343.027,137.541 347.718,167.086 353.065,181.552C355.663,188.58 358.968,193.085 360.841,195.017C364.095,198.373 367.4,199.855 369.825,200.616C374.957,202.224 379.532,201.692 383.502,200.11C505.876,151.354 622.382,193.294 637.801,199.282L637.797,199.28C638.474,199.623 639.137,199.919 639.769,200.177C642.307,201.214 657.723,205.452 666.022,189.771C670.013,182.23 681.457,149.424 666.144,116.617C656.73,96.45 637.267,75.402 597.331,62.136C544.113,44.457 533.639,18.46 531.966,12.853C531.993,9.454 531.6,7.511 531.6,7.511L525.88,24.237L512.631,19.634C516.083,33.908 530.809,61.191 591.003,81.187C681.902,111.383 647.72,185.213 647.299,181.461C647.299,181.461 515.268,126.002 376.071,181.461C372.563,182.858 341.909,112.678 432.367,81.187C492.818,60.143 507.378,32.857 510.759,18.983ZM667.121,178.288L667.249,179.223C667.213,178.909 667.171,178.598 667.121,178.288C666.25,172.502 663.527,168.927 660.785,166.594C662.568,168.21 664.046,170.134 665.146,172.271C666.108,174.136 666.782,176.163 667.121,178.288Z" style="fill:white;"/>
                            </g>
                        </g>
                    </g>
                    <g transform="matrix(0.609908,0.250585,-0.250585,0.609908,328.016,72.1785)">
                        <g>
                            <path d="M508.484,25.758C502.225,40.595 484.102,63.177 432.367,81.187C341.909,112.678 372.563,182.858 376.071,181.461C515.268,126.002 647.299,181.461 647.299,181.461C647.72,185.213 681.902,111.383 591.003,81.187C546.926,66.545 527.228,47.996 518.495,33.495L522.636,36.695L540.27,6.408C540.27,6.408 540.688,8.482 540.644,12.181C542.398,15.67 555.663,39.084 600.087,53.841C643.163,68.151 663.91,91.167 674.064,112.92C691.007,149.219 678.163,185.516 673.747,193.86C667.787,205.119 659.262,207.991 656.803,208.838C648.089,211.838 640.645,210.614 634.358,207.324C618.94,201.354 505.683,160.839 386.737,208.229C380.941,210.538 362.298,214.736 349.983,195.219C343.881,185.548 330.664,149.114 349.058,112.234C359.572,91.153 380.569,68.708 422.894,53.974C467.117,38.579 480.733,15.502 482.671,11.79C482.699,8.193 483.132,6.164 483.132,6.164L508.484,25.758ZM675.694,176.563C675.791,177.121 675.871,177.682 675.934,178.248L675.694,176.563C674.261,168.244 669.253,161.006 662.064,156.722C665.074,158.368 668.2,160.699 670.743,164.143C673.047,167.263 674.874,171.296 675.694,176.563Z" style="fill:white;"/>
                            <g transform="matrix(1,0,0,-1,0,1026.7)">
                                <path d="M482.671,11.79C480.733,15.502 467.117,38.579 422.894,53.974C380.569,68.708 359.572,91.153 349.058,112.234C330.664,149.114 343.881,185.548 349.983,195.219C362.298,214.736 380.941,210.538 386.737,208.229C505.185,161.037 617.99,201.015 634.16,207.243L634.149,207.237C634.941,207.622 635.717,207.963 636.463,208.268C640.055,209.736 662,216.054 673.747,193.86C678.163,185.516 691.007,149.219 674.064,112.92C663.91,91.167 643.163,68.151 600.087,53.841C555.663,39.084 542.398,15.67 540.644,12.181C540.688,8.482 540.27,6.408 540.27,6.408L540.147,5.529L539.962,4.497C539.847,3.912 539.714,3.332 539.56,2.757L539.492,2.501C539.341,1.945 539.174,1.394 538.993,0.848L538.643,-0.137L538.272,-1.061C538.062,-1.565 537.838,-2.062 537.598,-2.551L537.21,-3.329L536.628,-4.384L536.046,-5.348L535.653,-5.954L535.569,-6.071C535.261,-6.528 534.94,-6.976 534.607,-7.415L534.002,-8.187L533.341,-8.964C532.963,-9.395 532.572,-9.816 532.166,-10.222L531.988,-10.4C531.164,-11.222 530.286,-11.996 529.357,-12.714L529.178,-12.853C528.719,-13.204 528.249,-13.543 527.766,-13.867L526.948,-14.401L526.045,-14.938C525.555,-15.221 525.054,-15.49 524.54,-15.741L523.759,-16.122L522.636,-16.611L483.132,6.164C483.132,6.164 482.699,8.193 482.671,11.79ZM511.663,13.49C511.843,11.284 511.685,10.042 511.685,10.042C511.685,10.042 511.516,11.287 511.663,13.49C510.836,24.068 502.379,56.814 432.367,81.187C341.909,112.678 372.563,182.858 376.071,181.461C515.268,126.002 647.299,181.461 647.299,181.461C647.72,185.213 681.902,111.383 591.003,81.187C520.371,57.724 512.342,24.226 511.663,13.49ZM675.736,176.812L675.934,178.248C675.88,177.766 675.814,177.288 675.736,176.812C674.362,167.849 669.898,162.584 665.655,159.268C668.496,161.609 670.855,164.472 672.609,167.69C674.138,170.497 675.208,173.574 675.736,176.812Z" style="fill:white;"/>
                            </g>
                        </g>
                        <g transform="matrix(0.707107,0.707107,-0.707107,0.707107,512.693,-211.049)">
                            <path d="M511.692,13.923L538.275,21.145L540.27,6.408C540.27,6.408 540.688,8.482 540.644,12.181C542.398,15.67 555.663,39.084 600.087,53.841C643.163,68.151 663.91,91.167 674.064,112.92C691.007,149.219 678.163,185.516 673.747,193.86C667.787,205.119 659.262,207.991 656.803,208.838C648.089,211.838 640.645,210.614 634.358,207.324C618.94,201.354 505.683,160.839 386.737,208.229C380.941,210.538 362.298,214.736 349.983,195.219C343.881,185.548 330.664,149.114 349.058,112.234C359.572,91.153 380.569,68.708 422.894,53.974C467.117,38.579 480.733,15.502 482.671,11.79C482.699,8.193 483.132,6.164 483.132,6.164L511.63,13.907C510.609,24.906 501.483,57.127 432.367,81.187C341.909,112.678 372.563,182.858 376.071,181.461C515.268,126.002 647.299,181.461 647.299,181.461C647.72,185.213 681.902,111.383 591.003,81.187C521.291,58.029 512.562,25.097 511.692,13.923ZM675.694,176.563C675.791,177.121 675.871,177.682 675.934,178.248L675.694,176.563C674.261,168.244 669.253,161.006 662.064,156.722C665.074,158.368 668.2,160.699 670.743,164.143C673.047,167.263 674.874,171.296 675.694,176.563Z" style="fill:white;"/>
                            <g transform="matrix(1,0,0,-1,0,1026.7)">
                                <path d="M482.671,11.79C480.733,15.502 467.117,38.579 422.894,53.974C380.569,68.708 359.572,91.153 349.058,112.234C330.664,149.114 343.881,185.548 349.983,195.219C362.298,214.736 380.941,210.538 386.737,208.229C505.165,161.045 617.953,201.002 634.152,207.24L634.149,207.237C634.941,207.622 635.717,207.963 636.463,208.268C640.055,209.736 662,216.054 673.747,193.86C678.163,185.516 691.007,149.219 674.064,112.92C663.91,91.167 643.163,68.151 600.087,53.841C555.663,39.084 542.398,15.67 540.644,12.181C540.688,8.482 540.27,6.408 540.27,6.408L539.961,4.494L539.512,2.561L538.955,0.732L538.275,-1.061L483.132,6.164C483.132,6.164 482.699,8.193 482.671,11.79ZM675.736,176.812L675.934,178.248C675.88,177.766 675.814,177.288 675.736,176.812C674.362,167.849 669.898,162.584 665.655,159.268C668.496,161.609 670.855,164.472 672.609,167.69C674.138,170.497 675.208,173.574 675.736,176.812ZM511.663,13.49C511.843,11.284 511.685,10.042 511.685,10.042C511.685,10.042 511.516,11.287 511.663,13.49C510.836,24.068 502.379,56.814 432.367,81.187C341.909,112.678 372.563,182.858 376.071,181.461C515.268,126.002 647.299,181.461 647.299,181.461C647.72,185.213 681.902,111.383 591.003,81.187C520.371,57.724 512.342,24.226 511.663,13.49Z" style="fill:white;"/>
                            </g>
                        </g>
                        <g transform="matrix(2.22045e-16,1,-1,2.22045e-16,1024.45,2.24583)">
                            <path d="M540.27,6.408C540.27,6.408 540.688,8.482 540.644,12.181C542.398,15.67 555.663,39.084 600.087,53.841C643.163,68.151 663.91,91.167 674.064,112.92C691.007,149.219 678.163,185.516 673.747,193.86C667.787,205.119 659.262,207.991 656.803,208.838C648.089,211.838 640.645,210.614 634.358,207.324C618.94,201.354 505.683,160.839 386.737,208.229C380.941,210.538 362.298,214.736 349.983,195.219C343.881,185.548 330.664,149.114 349.058,112.234C359.572,91.153 380.569,68.708 422.894,53.974C467.117,38.579 480.733,15.502 482.671,11.79C482.699,8.193 483.132,6.164 483.132,6.164L538.338,-0.908L540.27,6.408ZM675.694,176.563C675.791,177.121 675.871,177.682 675.934,178.248L675.694,176.563C674.261,168.244 669.253,161.006 662.064,156.722C665.074,158.368 668.2,160.699 670.743,164.143C673.047,167.263 674.874,171.296 675.694,176.563ZM511.663,13.49C510.836,24.068 502.379,56.814 432.367,81.187C341.909,112.678 372.563,182.858 376.071,181.461C515.268,126.002 647.299,181.461 647.299,181.461C647.72,185.213 681.902,111.383 591.003,81.187C520.371,57.724 512.342,24.226 511.663,13.49C511.843,11.284 511.685,10.042 511.685,10.042C511.685,10.042 511.516,11.287 511.663,13.49Z" style="fill:white;"/>
                            <g transform="matrix(1,0,0,-1,0,1026.7)">
                                <path d="M511.637,13.821L483.132,6.164C483.132,6.164 482.699,8.193 482.671,11.79C480.733,15.502 467.117,38.579 422.894,53.974C380.569,68.708 359.572,91.153 349.058,112.234C330.664,149.114 343.881,185.548 349.983,195.219C362.298,214.736 380.941,210.538 386.737,208.229C505.185,161.037 617.99,201.015 634.16,207.243L634.149,207.237C634.941,207.622 635.717,207.963 636.463,208.268C640.055,209.736 662,216.054 673.747,193.86C678.163,185.516 691.007,149.219 674.064,112.92C663.91,91.167 643.163,68.151 600.087,53.841C555.663,39.084 542.398,15.67 540.644,12.181C540.688,8.482 540.27,6.408 540.27,6.408L538.338,20.993L511.686,13.834C512.515,24.92 521.104,57.967 591.003,81.187C681.902,111.383 647.72,185.213 647.299,181.461C647.299,181.461 515.268,126.002 376.071,181.461C372.563,182.858 341.909,112.678 432.367,81.187C501.669,57.062 510.658,24.732 511.637,13.821ZM675.736,176.812L675.934,178.248C675.88,177.766 675.814,177.288 675.736,176.812C674.362,167.849 669.898,162.584 665.655,159.268C668.496,161.609 670.855,164.472 672.609,167.69C674.138,170.497 675.208,173.574 675.736,176.812Z" style="fill:white;"/>
                            </g>
                        </g>
                        <g transform="matrix(-0.707107,0.707107,-0.707107,-0.707107,1235.5,514.938)">
                            <path d="M634.358,207.324C618.94,201.354 505.683,160.839 386.737,208.229C380.941,210.538 362.298,214.736 349.983,195.219C343.881,185.548 330.664,149.114 349.058,112.234C359.572,91.153 380.569,68.708 422.894,53.974C467.117,38.579 480.733,15.502 482.671,11.79C482.699,8.193 483.132,6.164 483.132,6.164L522.788,-16.548C523.322,-16.325 523.846,-16.087 524.359,-15.83L524.678,-15.672C525.185,-15.417 525.682,-15.147 526.17,-14.866L527.069,-14.325L527.878,-13.791C528.356,-13.466 528.823,-13.128 529.277,-12.777L529.454,-12.638C530.374,-11.918 531.245,-11.146 532.061,-10.327L532.24,-10.147C532.641,-9.739 533.029,-9.32 533.405,-8.892L534.067,-8.108L534.659,-7.345C534.99,-6.908 535.308,-6.462 535.612,-6.006L536.093,-5.274L536.683,-4.289C536.957,-3.811 537.217,-3.325 537.459,-2.831L537.623,-2.499C537.86,-2.011 538.082,-1.516 538.292,-1.015L538.665,-0.079L539.006,0.887C539.187,1.427 539.353,1.974 539.499,2.526L539.567,2.782C539.87,3.939 540.102,5.119 540.255,6.316L540.27,6.408C540.27,6.408 540.688,8.482 540.644,12.181C542.398,15.67 555.663,39.084 600.087,53.841C643.163,68.151 663.91,91.167 674.064,112.92C691.007,149.219 678.163,185.516 673.747,193.86C667.787,205.119 659.262,207.991 656.803,208.838C648.089,211.838 640.645,210.614 634.358,207.324ZM511.663,13.49C510.836,24.068 502.379,56.814 432.367,81.187C341.909,112.678 372.563,182.858 376.071,181.461C515.268,126.002 647.299,181.461 647.299,181.461C647.72,185.213 681.902,111.383 591.003,81.187C520.371,57.724 512.342,24.226 511.663,13.49C511.843,11.284 511.685,10.042 511.685,10.042C511.685,10.042 511.516,11.287 511.663,13.49ZM675.694,176.563C674.261,168.244 669.253,161.006 662.064,156.722C665.074,158.368 668.2,160.699 670.743,164.143C673.047,167.263 674.874,171.296 675.694,176.563C675.791,177.121 675.871,177.682 675.934,178.248L675.694,176.563Z" style="fill:white;"/>
                            <g transform="matrix(1,0,0,-1,0,1026.7)">
                                <path d="M501.965,37.155L501.181,36.862L500.501,36.591L499.49,36.136L498.87,35.846L497.285,35L495.76,34.054L495.357,33.771L494.278,32.998L493.774,32.599L492.869,31.855L492.343,31.387L491.541,30.632L491.028,30.12L490.286,29.323L489.814,28.795L489.079,27.892L488.696,27.411L487.681,25.983L486.749,24.475L486.453,23.935L485.91,22.91L485.615,22.29L485.166,21.293L484.899,20.636L484.522,19.627L484.291,18.951L483.978,17.915L483.788,17.233L483.536,16.147L483.393,15.486L483.189,14.244L483.094,13.593L482.937,11.284L482.911,11.333C482.822,9.623 482.897,7.894 483.132,6.164C483.132,6.164 482.699,8.193 482.671,11.79C480.733,15.502 467.117,38.579 422.894,53.974C380.569,68.708 359.572,91.153 349.058,112.234C330.664,149.114 343.881,185.548 349.983,195.219C362.298,214.736 380.941,210.538 386.737,208.229C505.165,161.045 617.953,201.002 634.152,207.24L634.149,207.237C634.941,207.622 635.717,207.963 636.463,208.268C640.055,209.736 662,216.054 673.747,193.86C678.163,185.516 691.007,149.219 674.064,112.92C663.91,91.167 643.163,68.151 600.087,53.841C555.663,39.084 542.398,15.67 540.644,12.181C540.688,8.482 540.27,6.408 540.27,6.408L522.788,36.632L521.093,37.274L520.98,37.311C530.778,51.142 550.698,67.798 591.003,81.187C681.902,111.383 647.72,185.213 647.299,181.461C647.299,181.461 515.268,126.002 376.071,181.461C372.563,182.858 341.909,112.678 432.367,81.187C472.129,67.345 492.036,50.803 501.965,37.155ZM675.736,176.812L675.934,178.248C675.88,177.766 675.814,177.288 675.736,176.812C674.362,167.849 669.898,162.584 665.655,159.268C668.496,161.609 670.855,164.472 672.609,167.69C674.138,170.497 675.208,173.574 675.736,176.812Z" style="fill:white;"/>
                            </g>
                        </g>
                    </g>
                    <g transform="matrix(0.52923,0.217438,-0.217438,0.52923,352.235,130.536)">
                        <g>
                            <path d="M507.559,27.816C500.521,42.625 481.767,63.99 432.367,81.187C341.909,112.678 372.563,182.858 376.071,181.461C515.268,126.002 647.299,181.461 647.299,181.461C647.72,185.213 681.902,111.383 591.003,81.187C552.716,68.468 532.824,52.801 522.54,39.394L524.305,40.758L544.628,5.855C544.628,5.855 545.067,7.975 545.059,11.768C546.981,15.175 560.187,35.958 601.472,49.673C646.127,64.507 667.518,88.512 678.044,111.062C695.806,149.116 682.259,187.167 677.629,195.915C670.819,208.781 661.042,212.024 658.233,212.991C648.258,216.425 639.729,215.055 632.513,211.322C616.674,205.215 505.306,165.718 388.362,212.31C381.733,214.951 360.356,219.891 346.268,197.563C339.849,187.39 325.779,149.068 345.127,110.274C356.011,88.451 377.637,65.078 421.45,49.825C462.601,35.5 476.138,14.957 478.255,11.328C478.325,7.645 478.779,5.573 478.779,5.573L507.559,27.816ZM680.021,175.806C680.133,176.45 680.226,177.102 680.299,177.758L680.021,175.806C678.357,166.167 672.531,157.791 664.178,152.863C667.667,154.753 671.3,157.437 674.26,161.418C676.94,165.024 679.068,169.694 680.021,175.806Z" style="fill:white;"/>
                            <g transform="matrix(1,0,0,-1,0,1026.7)">
                                <path d="M478.255,11.328C476.138,14.957 462.601,35.5 421.45,49.825C377.637,65.078 356.011,88.451 345.127,110.274C325.779,149.068 339.849,187.39 346.268,197.563C360.356,219.891 381.733,214.951 388.362,212.31C504.924,165.87 615.946,204.957 632.358,211.254L632.351,211.25C633.189,211.651 634.01,212.01 634.801,212.334C638.924,214.018 664.149,221.383 677.629,195.915C682.259,187.167 695.806,149.116 678.044,111.062C667.518,88.512 646.127,64.507 601.472,49.673C560.187,35.958 546.981,15.175 545.059,11.768C545.067,7.975 544.628,5.855 544.628,5.855L544.486,4.842L544.272,3.652C544.14,2.978 543.987,2.309 543.81,1.647L543.731,1.352C543.557,0.71 543.365,0.075 543.156,-0.554L542.753,-1.689L542.325,-2.754C542.083,-3.334 541.825,-3.907 541.548,-4.47L541.101,-5.367L540.43,-6.583L539.76,-7.694L539.306,-8.392L539.209,-8.527C538.855,-9.054 538.485,-9.571 538.101,-10.076L537.404,-10.966L536.642,-11.862C536.207,-12.359 535.757,-12.843 535.288,-13.311L535.083,-13.516C534.133,-14.463 533.122,-15.355 532.051,-16.183L531.845,-16.343C531.316,-16.748 530.774,-17.139 530.217,-17.511L529.274,-18.127L528.234,-18.746C527.669,-19.073 527.091,-19.383 526.5,-19.672L525.599,-20.11L524.305,-20.674L478.779,5.573C478.779,5.573 478.325,7.645 478.255,11.328ZM511.663,13.49C511.843,11.284 511.685,10.042 511.685,10.042C511.685,10.042 511.516,11.287 511.663,13.49C510.836,24.068 502.379,56.814 432.367,81.187C341.909,112.678 372.563,182.858 376.071,181.461C515.268,126.002 647.299,181.461 647.299,181.461C647.72,185.213 681.902,111.383 591.003,81.187C520.371,57.724 512.342,24.226 511.663,13.49ZM680.068,176.09L680.299,177.758C680.236,177.198 680.16,176.642 680.068,176.09C678.467,165.659 673.237,159.572 668.302,155.757C671.618,158.458 674.373,161.773 676.42,165.505C678.205,168.759 679.454,172.33 680.068,176.09Z" style="fill:white;"/>
                            </g>
                        </g>
                        <g transform="matrix(0.707107,0.707107,-0.707107,0.707107,512.693,-211.049)">
                            <path d="M511.747,14.53L542.328,22.838L544.628,5.855C544.628,5.855 545.067,7.975 545.059,11.768C546.981,15.175 560.187,35.958 601.472,49.673C646.127,64.507 667.518,88.512 678.044,111.062C695.806,149.116 682.259,187.167 677.629,195.915C670.819,208.781 661.042,212.024 658.233,212.991C648.258,216.425 639.729,215.055 632.513,211.322C616.674,205.215 505.306,165.718 388.362,212.31C381.733,214.951 360.356,219.891 346.268,197.563C339.849,187.39 325.779,149.068 345.127,110.274C356.011,88.451 377.637,65.078 421.45,49.825C462.601,35.5 476.138,14.957 478.255,11.328C478.325,7.645 478.779,5.573 478.779,5.573L511.568,14.481C510.283,25.993 500.315,57.533 432.367,81.187C341.909,112.678 372.563,182.858 376.071,181.461C515.268,126.002 647.299,181.461 647.299,181.461C647.72,185.213 681.902,111.383 591.003,81.187C522.517,58.436 512.888,26.252 511.747,14.53ZM680.021,175.806C680.133,176.45 680.226,177.102 680.299,177.758L680.021,175.806C678.357,166.167 672.531,157.791 664.178,152.863C667.667,154.753 671.3,157.437 674.26,161.418C676.94,165.024 679.068,169.694 680.021,175.806Z" style="fill:white;"/>
                            <g transform="matrix(1,0,0,-1,0,1026.7)">
                                <path d="M478.255,11.328C476.138,14.957 462.601,35.5 421.45,49.825C377.637,65.078 356.011,88.451 345.127,110.274C325.779,149.068 339.849,187.39 346.268,197.563C360.356,219.891 381.733,214.951 388.362,212.31C504.924,165.87 615.946,204.957 632.358,211.254L632.351,211.25C633.189,211.651 634.01,212.01 634.801,212.334C638.924,214.018 664.149,221.383 677.629,195.915C682.259,187.167 695.806,149.116 678.044,111.062C667.518,88.512 646.127,64.507 601.472,49.673C560.187,35.958 546.981,15.175 545.059,11.768C545.067,7.975 544.628,5.855 544.628,5.855L544.271,3.648L543.754,1.42L543.112,-0.687L542.328,-2.754L478.779,5.573C478.779,5.573 478.325,7.645 478.255,11.328ZM680.068,176.09L680.299,177.758C680.236,177.198 680.16,176.642 680.068,176.09C678.467,165.659 673.237,159.572 668.302,155.757C671.618,158.458 674.373,161.773 676.42,165.505C678.205,168.759 679.454,172.33 680.068,176.09ZM511.663,13.49C511.843,11.284 511.685,10.042 511.685,10.042C511.685,10.042 511.516,11.287 511.663,13.49C510.836,24.068 502.379,56.814 432.367,81.187C341.909,112.678 372.563,182.858 376.071,181.461C515.268,126.002 647.299,181.461 647.299,181.461C647.72,185.213 681.902,111.383 591.003,81.187C520.371,57.724 512.342,24.226 511.663,13.49Z" style="fill:white;"/>
                            </g>
                        </g>
                        <g transform="matrix(2.22045e-16,1,-1,2.22045e-16,1024.45,2.24583)">
                            <path d="M632.513,211.322C616.674,205.215 505.306,165.718 388.362,212.31C381.733,214.951 360.356,219.891 346.268,197.563C339.849,187.39 325.779,149.068 345.127,110.274C356.011,88.451 377.637,65.078 421.45,49.825C462.601,35.5 476.138,14.957 478.255,11.328C478.325,7.645 478.779,5.573 478.779,5.573L478.84,5.11L479.095,3.639L479.415,2.187L479.798,0.755L480.243,-0.653L480.415,-1.144L480.749,-2.037L480.901,-2.418L481.436,-3.666L481.958,-4.758C482.601,-6.051 483.326,-7.296 484.127,-8.484L484.815,-9.473L485.624,-10.54L486.474,-11.572L486.839,-11.992L487.364,-12.568L487.837,-13.069L488.882,-14.103L489.975,-15.091L491.114,-16.032L492.296,-16.924C492.705,-17.204 493.114,-17.484 493.522,-17.765L494.79,-18.553L496.099,-19.286L496.981,-19.736L497.447,-19.963L498.206,-20.31L498.833,-20.581L499.458,-20.836L500.735,-21.311L502.037,-21.735L503.241,-22.073C504.187,-22.323 505.151,-22.532 506.129,-22.697L507.745,-22.934L509.256,-23.08L510.762,-23.157L512.262,-23.166L513.754,-23.106L515.235,-22.98L516.704,-22.789L518.159,-22.532L519.663,-22.194C520.578,-21.968 521.481,-21.703 522.37,-21.4L523.562,-20.97L524.802,-20.466L526.019,-19.913L527.212,-19.312L527.766,-19.012L528.38,-18.664L529.032,-18.275L529.521,-17.969L530.266,-17.482L531.465,-16.635L532.627,-15.734L533.75,-14.78C534.11,-14.445 534.471,-14.11 534.832,-13.775L535.872,-12.72L536.866,-11.615L537.502,-10.849L537.814,-10.461L538.334,-9.776L538.713,-9.26L539.125,-8.666L539.56,-8.012L539.872,-7.519L540.355,-6.719L540.575,-6.335L541.095,-5.382L541.841,-3.864L542.401,-2.578C542.679,-1.902 542.933,-1.219 543.165,-0.529L543.792,1.565L544.28,3.695L544.628,5.855C544.628,5.855 545.067,7.975 545.059,11.768C546.981,15.175 560.187,35.958 601.472,49.673C646.127,64.507 667.518,88.512 678.044,111.062C695.806,149.116 682.259,187.167 677.629,195.915C670.819,208.781 661.042,212.024 658.233,212.991C648.258,216.425 639.729,215.055 632.513,211.322ZM680.021,175.806C680.133,176.45 680.226,177.102 680.299,177.758L680.021,175.806C678.357,166.167 672.531,157.791 664.178,152.863C667.667,154.753 671.3,157.437 674.26,161.418C676.94,165.024 679.068,169.694 680.021,175.806ZM511.663,13.49C510.836,24.068 502.379,56.814 432.367,81.187C341.909,112.678 372.563,182.858 376.071,181.461C515.268,126.002 647.299,181.461 647.299,181.461C647.72,185.213 681.902,111.383 591.003,81.187C520.371,57.724 512.342,24.226 511.663,13.49C511.843,11.284 511.685,10.042 511.685,10.042C511.685,10.042 511.516,11.287 511.663,13.49Z" style="fill:white;"/>
                            <g transform="matrix(1,0,0,-1,0,1026.7)">
                                <path d="M511.58,14.383L478.779,5.573C478.779,5.573 478.325,7.645 478.255,11.328C476.138,14.957 462.601,35.5 421.45,49.825C377.637,65.078 356.011,88.451 345.127,110.274C325.779,149.068 339.849,187.39 346.268,197.563C360.356,219.891 381.733,214.951 388.362,212.31C504.924,165.87 615.946,204.957 632.358,211.254L632.351,211.25C633.189,211.651 634.01,212.01 634.801,212.334C638.924,214.018 664.149,221.383 677.629,195.915C682.259,187.167 695.806,149.116 678.044,111.062C667.518,88.512 646.127,64.507 601.472,49.673C560.187,35.958 546.981,15.175 545.059,11.768C545.067,7.975 544.628,5.855 544.628,5.855C544.862,7.699 544.94,9.552 544.848,11.396L544.791,11.294L544.593,14.478L544.246,16.554L543.763,18.626L543.148,20.664L542.401,22.662L511.735,14.425C512.831,26.06 522.313,58.369 591.003,81.187C681.902,111.383 647.72,185.213 647.299,181.461C647.299,181.461 515.268,126.002 376.071,181.461C372.563,182.858 341.909,112.678 432.367,81.187C500.509,57.465 510.34,25.812 511.58,14.383ZM680.068,176.09L680.299,177.758C680.236,177.198 680.16,176.642 680.068,176.09C678.467,165.659 673.237,159.572 668.302,155.757C671.618,158.458 674.373,161.773 676.42,165.505C678.205,168.759 679.454,172.33 680.068,176.09Z" style="fill:white;"/>
                            </g>
                        </g>
                        <g transform="matrix(-0.707107,0.707107,-0.707107,-0.707107,1235.5,514.938)">
                            <path d="M544.628,5.855C544.628,5.855 545.067,7.975 545.059,11.768C546.981,15.175 560.187,35.958 601.472,49.673C646.127,64.507 667.518,88.512 678.044,111.062C695.806,149.116 682.259,187.167 677.629,195.915C670.819,208.781 661.042,212.024 658.233,212.991C648.258,216.425 639.729,215.055 632.513,211.322C616.674,205.215 505.306,165.718 388.362,212.31C381.733,214.951 360.356,219.891 346.268,197.563C339.849,187.39 325.779,149.068 345.127,110.274C356.011,88.451 377.637,65.078 421.45,49.825C462.601,35.5 476.138,14.957 478.255,11.328C478.325,7.645 478.779,5.573 478.779,5.573L524.481,-20.601L544.628,5.855ZM511.663,13.49C510.836,24.068 502.379,56.814 432.367,81.187C341.909,112.678 372.563,182.858 376.071,181.461C515.268,126.002 647.299,181.461 647.299,181.461C647.72,185.213 681.902,111.383 591.003,81.187C520.371,57.724 512.342,24.226 511.663,13.49C511.843,11.284 511.685,10.042 511.685,10.042C511.685,10.042 511.516,11.287 511.663,13.49ZM680.021,175.806C678.357,166.167 672.531,157.791 664.178,152.863C667.667,154.753 671.3,157.437 674.26,161.418C676.94,165.024 679.068,169.694 680.021,175.806C680.133,176.45 680.226,177.102 680.299,177.758L680.021,175.806Z" style="fill:white;"/>
                            <g transform="matrix(1,0,0,-1,0,1026.7)">
                                <path d="M499.127,40.77L498.796,40.639L497.631,40.114L496.916,39.78L495.09,38.805L493.333,37.715L492.868,37.389L491.625,36.498L491.043,36.038L490,35.18L489.395,34.641L488.47,33.77L487.879,33.181L487.024,32.262L486.48,31.653L485.633,30.613L485.192,30.058L484.022,28.413L482.948,26.675L482.607,26.052L481.981,24.872L481.641,24.157L481.124,23.008L480.816,22.251L480.381,21.088L480.115,20.309L479.754,19.115L479.536,18.329L479.245,17.078L479.08,16.316L478.845,14.885L478.74,14.173L478.574,10.776L478.505,10.895C478.443,9.132 478.538,7.353 478.779,5.573C478.779,5.573 478.325,7.645 478.255,11.328C476.138,14.957 462.601,35.5 421.45,49.825C377.637,65.078 356.011,88.451 345.127,110.274C325.779,149.068 339.849,187.39 346.268,197.563C360.356,219.891 381.733,214.951 388.362,212.31C504.924,165.87 615.946,204.957 632.358,211.254L632.351,211.25C633.189,211.651 634.01,212.01 634.801,212.334C638.924,214.018 664.149,221.383 677.629,195.915C682.259,187.167 695.806,149.116 678.044,111.062C667.518,88.512 646.127,64.507 601.472,49.673C560.187,35.958 546.981,15.175 545.059,11.768C545.067,7.975 544.628,5.855 544.628,5.855L524.481,40.685L523.766,40.956C534.381,54.002 554.189,68.958 591.003,81.187C681.902,111.383 647.72,185.213 647.299,181.461C647.299,181.461 515.268,126.002 376.071,181.461C372.563,182.858 341.909,112.678 432.367,81.187C468.668,68.55 488.42,53.662 499.127,40.77ZM680.068,176.09L680.299,177.758C680.236,177.198 680.16,176.642 680.068,176.09C678.467,165.659 673.237,159.572 668.302,155.757C671.618,158.458 674.373,161.773 676.42,165.505C678.205,168.759 679.454,172.33 680.068,176.09Z" style="fill:white;"/>
                            </g>
                        </g>
                    </g>
                </g>
            </g>
        </g>
    </g>
</svg>
