<?xml version="1.0" encoding="UTF-8" standalone="no"?>
<!DOCTYPE svg PUBLIC "-//W3C//DTD SVG 1.1//EN" "http://www.w3.org/Graphics/SVG/1.1/DTD/svg11.dtd">
<svg width="100%" height="100%" viewBox="0 0 3314 1024" version="1.1" xmlns="http://www.w3.org/2000/svg" xmlns:xlink="http://www.w3.org/1999/xlink" xml:space="preserve" xmlns:serif="http://www.serif.com/" style="fill-rule:evenodd;clip-rule:evenodd;stroke-linecap:round;stroke-linejoin:round;stroke-miterlimit:1.5;">
    <rect id="Artboard1" x="0" y="0" width="3313.78" height="1024" style="fill:none;"/>
    <g id="Artboard11" serif:id="Artboard1">
        <g>
            <g transform="matrix(0.946449,0,0,0.946449,27.3702,27.4904)">
                <g>
                    <path d="M508.293,26.234C501.842,41.067 483.561,63.366 432.367,81.187C341.909,112.678 372.563,182.858 376.071,181.461C515.268,126.002 647.299,181.461 647.299,181.461C647.72,185.213 681.902,111.383 591.003,81.187C539.962,64.232 521.612,42.036 515.105,26.977L531.676,11.764L531.683,11.795C531.808,10.379 531.782,8.944 531.6,7.511C531.6,7.511 531.993,9.454 531.966,12.853C533.639,18.46 544.113,44.457 597.331,62.136C637.267,75.402 656.73,96.45 666.144,116.617C681.457,149.424 670.013,182.23 666.022,189.771C661.755,197.834 655.719,199.968 653.958,200.574C647.751,202.711 642.468,201.777 638.025,199.37C623.544,193.715 506.486,151.111 383.502,200.11C379.532,201.692 374.957,202.224 369.825,200.616C367.4,199.855 364.095,198.373 360.841,195.017C358.968,193.085 355.663,188.58 353.065,181.552C347.718,167.086 343.027,137.541 360.856,109.043C371.652,91.786 391.047,74.315 425.767,62.228C479.897,43.384 490.025,17.151 491.46,12.301C491.438,9.13 491.793,7.341 491.793,7.341L508.293,26.234ZM667.088,178.085C667.152,178.461 667.206,178.84 667.249,179.223L667.088,178.085C666.127,172.448 662.812,167.522 658.032,164.508C660.063,165.676 662.137,167.307 663.819,169.67C665.341,171.808 666.541,174.546 667.088,178.085Z" style="fill:white;"/>
                    <g transform="matrix(1,0,0,-1,0,1026.7)">
                        <path d="M491.46,12.301C490.025,17.151 479.897,43.384 425.767,62.228C391.047,74.315 371.652,91.786 360.856,109.043C343.027,137.541 347.718,167.086 353.065,181.552C355.663,188.58 358.968,193.085 360.841,195.017C364.095,198.373 367.4,199.855 369.825,200.616C374.957,202.224 379.532,201.692 383.502,200.11C505.876,151.354 622.382,193.294 637.801,199.282L637.797,199.28C638.474,199.623 639.137,199.919 639.769,200.177C642.307,201.214 657.723,205.452 666.022,189.771C670.013,182.23 681.457,149.424 666.144,116.617C656.73,96.45 637.267,75.402 597.331,62.136C544.113,44.457 533.639,18.46 531.966,12.853C531.993,9.454 531.6,7.511 531.6,7.511C530.325,-2.517 521.793,-10.033 511.685,-10.033L491.793,7.341C491.793,7.341 491.438,9.13 491.46,12.301ZM511.663,13.49C511.843,11.284 511.685,10.042 511.685,10.042C511.685,10.042 511.516,11.287 511.663,13.49C510.836,24.068 502.379,56.814 432.367,81.187C341.909,112.678 372.563,182.858 376.071,181.461C515.268,126.002 647.299,181.461 647.299,181.461C647.72,185.213 681.902,111.383 591.003,81.187C520.371,57.724 512.342,24.226 511.663,13.49ZM667.121,178.288L667.249,179.223C667.213,178.909 667.171,178.598 667.121,178.288C666.25,172.502 663.527,168.927 660.785,166.594C662.568,168.21 664.046,170.134 665.146,172.271C666.108,174.136 666.782,176.163 667.121,178.288Z" style="fill:white;"/>
                    </g>
                </g>
                <g transform="matrix(0.707107,0.707107,-0.707107,0.707107,512.693,-211.049)">
                    <path d="M512.156,17.435L525.88,24.237L531.6,7.511C531.6,7.511 531.993,9.454 531.966,12.853C533.639,18.46 544.113,44.457 597.331,62.136C637.267,75.402 656.73,96.45 666.144,116.617C681.457,149.424 670.013,182.23 666.022,189.771C661.755,197.834 655.719,199.968 653.958,200.574C647.751,202.711 642.468,201.777 638.025,199.37C623.544,193.715 506.486,151.111 383.502,200.11C379.532,201.692 374.957,202.224 369.825,200.616C367.4,199.855 364.095,198.373 360.841,195.017C358.968,193.085 355.663,188.58 353.065,181.552C347.718,167.086 343.027,137.541 360.856,109.043C371.652,91.786 391.047,74.315 425.767,62.228C479.897,43.384 490.025,17.151 491.46,12.301C491.438,9.13 491.793,7.341 491.793,7.341L511.2,16.961C508.753,30.037 495.923,59.062 432.367,81.187C341.909,112.678 372.563,182.858 376.071,181.461C515.268,126.002 647.299,181.461 647.299,181.461C647.72,185.213 681.902,111.383 591.003,81.187C527.549,60.108 514.62,30.93 512.156,17.435ZM667.088,178.085C667.152,178.461 667.206,178.84 667.249,179.223L667.088,178.085C666.127,172.448 662.812,167.522 658.032,164.508C660.063,165.676 662.137,167.307 663.819,169.67C665.341,171.808 666.541,174.546 667.088,178.085Z" style="fill:white;"/>
                    <g transform="matrix(1,0,0,-1,0,1026.7)">
                        <path d="M491.46,12.301C490.025,17.151 479.897,43.384 425.767,62.228C391.047,74.315 371.652,91.786 360.856,109.043C343.027,137.541 347.718,167.086 353.065,181.552C355.663,188.58 358.968,193.085 360.841,195.017C364.095,198.373 367.4,199.855 369.825,200.616C374.957,202.224 379.532,201.692 383.502,200.11C505.876,151.354 622.382,193.294 637.801,199.282L637.797,199.28C638.474,199.623 639.137,199.919 639.769,200.177C642.307,201.214 657.723,205.452 666.022,189.771C670.013,182.23 681.457,149.424 666.144,116.617C656.73,96.45 637.267,75.402 597.331,62.136C544.113,44.457 533.639,18.46 531.966,12.853C531.993,9.454 531.6,7.511 531.6,7.511C531.039,3.096 529.027,-1.006 525.88,-4.153L491.793,7.341C491.793,7.341 491.438,9.13 491.46,12.301ZM511.663,13.49C511.843,11.284 511.685,10.042 511.685,10.042C511.685,10.042 511.516,11.287 511.663,13.49C510.836,24.068 502.379,56.814 432.367,81.187C341.909,112.678 372.563,182.858 376.071,181.461C515.268,126.002 647.299,181.461 647.299,181.461C647.72,185.213 681.902,111.383 591.003,81.187C520.371,57.724 512.342,24.226 511.663,13.49ZM667.121,178.288L667.249,179.223C667.213,178.909 667.171,178.598 667.121,178.288C666.25,172.502 663.527,168.927 660.785,166.594C662.568,168.21 664.046,170.134 665.146,172.271C666.108,174.136 666.782,176.163 667.121,178.288Z" style="fill:white;"/>
                    </g>
                </g>
                <g transform="matrix(2.22045e-16,1,-1,2.22045e-16,1024.45,2.24583)">
                    <path d="M638.025,199.37C623.544,193.715 506.486,151.111 383.502,200.11C379.532,201.692 374.957,202.224 369.825,200.616C367.4,199.855 364.095,198.373 360.841,195.017C358.968,193.085 355.663,188.58 353.065,181.552C347.718,167.086 343.027,137.541 360.856,109.043C371.652,91.786 391.047,74.315 425.767,62.228C479.897,43.384 490.025,17.151 491.46,12.301C491.438,9.13 491.793,7.341 491.793,7.341L531.76,10.042L531.6,7.511C531.6,7.511 531.993,9.454 531.966,12.853C533.639,18.46 544.113,44.457 597.331,62.136C637.267,75.402 656.73,96.45 666.144,116.617C681.457,149.424 670.013,182.23 666.022,189.771C661.755,197.834 655.719,199.968 653.958,200.574C647.751,202.711 642.468,201.777 638.025,199.37ZM667.088,178.085C667.152,178.461 667.206,178.84 667.249,179.223L667.088,178.085C666.127,172.448 662.812,167.522 658.032,164.508C660.063,165.676 662.137,167.307 663.819,169.67C665.341,171.808 666.541,174.546 667.088,178.085ZM511.663,13.49C510.836,24.068 502.379,56.814 432.367,81.187C341.909,112.678 372.563,182.858 376.071,181.461C515.268,126.002 647.299,181.461 647.299,181.461C647.72,185.213 681.902,111.383 591.003,81.187C520.371,57.724 512.342,24.226 511.663,13.49ZM511.663,13.49C511.843,11.284 511.685,10.042 511.685,10.042C511.685,10.042 511.516,11.287 511.663,13.49Z" style="fill:white;"/>
                    <g transform="matrix(1,0,0,-1,0,1026.7)">
                        <path d="M491.46,12.301C490.025,17.151 479.897,43.384 425.767,62.228C391.047,74.315 371.652,91.786 360.856,109.043C343.027,137.541 347.718,167.086 353.065,181.552C355.663,188.58 358.968,193.085 360.841,195.017C364.095,198.373 367.4,199.855 369.825,200.616C374.957,202.224 379.532,201.692 383.502,200.11C505.876,151.354 622.382,193.294 637.801,199.282L637.797,199.28C638.474,199.623 639.137,199.919 639.769,200.177C642.307,201.214 657.723,205.452 666.022,189.771C670.013,182.23 681.457,149.424 666.144,116.617C656.73,96.45 637.267,75.402 597.331,62.136C544.113,44.457 533.639,18.46 531.966,12.853C531.993,9.454 531.6,7.511 531.6,7.511L531.76,10.042L491.793,7.341C491.793,7.341 491.438,9.13 491.46,12.301ZM667.121,178.288L667.249,179.223C667.213,178.909 667.171,178.598 667.121,178.288C666.25,172.502 663.527,168.927 660.785,166.594C662.568,168.21 664.046,170.134 665.146,172.271C666.108,174.136 666.782,176.163 667.121,178.288ZM511.663,13.49C510.836,24.068 502.379,56.814 432.367,81.187C341.909,112.678 372.563,182.858 376.071,181.461C515.268,126.002 647.299,181.461 647.299,181.461C647.72,185.213 681.902,111.383 591.003,81.187C520.371,57.724 512.342,24.226 511.663,13.49ZM511.663,13.49C511.843,11.284 511.685,10.042 511.685,10.042C511.685,10.042 511.516,11.287 511.663,13.49Z" style="fill:white;"/>
                    </g>
                </g>
                <g transform="matrix(-0.707107,0.707107,-0.707107,-0.707107,1235.5,514.938)">
                    <path d="M531.6,7.511C531.6,7.511 531.993,9.454 531.966,12.853C533.639,18.46 544.113,44.457 597.331,62.136C637.267,75.402 656.73,96.45 666.144,116.617C681.457,149.424 670.013,182.23 666.022,189.771C661.755,197.834 655.719,199.968 653.958,200.574C647.751,202.711 642.468,201.777 638.025,199.37C623.544,193.715 506.486,151.111 383.502,200.11C379.532,201.692 374.957,202.224 369.825,200.616C367.4,199.855 364.095,198.373 360.841,195.017C358.968,193.085 355.663,188.58 353.065,181.552C347.718,167.086 343.027,137.541 360.856,109.043C371.652,91.786 391.047,74.315 425.767,62.228C479.897,43.384 490.025,17.151 491.46,12.301C491.438,9.13 491.793,7.341 491.793,7.341L525.88,-4.153L531.6,7.511ZM511.663,13.49C510.836,24.068 502.379,56.814 432.367,81.187C341.909,112.678 372.563,182.858 376.071,181.461C515.268,126.002 647.299,181.461 647.299,181.461C647.72,185.213 681.902,111.383 591.003,81.187C520.371,57.724 512.342,24.226 511.663,13.49C511.843,11.284 511.685,10.042 511.685,10.042C511.685,10.042 511.516,11.287 511.663,13.49ZM667.088,178.085C666.127,172.448 662.812,167.522 658.032,164.508C660.063,165.676 662.137,167.307 663.819,169.67C665.341,171.808 666.541,174.546 667.088,178.085C667.152,178.461 667.206,178.84 667.249,179.223L667.088,178.085Z" style="fill:white;"/>
                    <g transform="matrix(1,0,0,-1,0,1026.7)">
                        <path d="M511.2,16.961L491.793,7.341C491.793,7.341 491.438,9.13 491.46,12.301C490.025,17.151 479.897,43.384 425.767,62.228C391.047,74.315 371.652,91.786 360.856,109.043C343.027,137.541 347.718,167.086 353.065,181.552C355.663,188.58 358.968,193.085 360.841,195.017C364.095,198.373 367.4,199.855 369.825,200.616C374.957,202.224 379.532,201.692 383.502,200.11C505.876,151.354 622.382,193.294 637.801,199.282L637.797,199.28C638.474,199.623 639.137,199.919 639.769,200.177C642.307,201.214 657.723,205.452 666.022,189.771C670.013,182.23 681.457,149.424 666.144,116.617C656.73,96.45 637.267,75.402 597.331,62.136C544.113,44.457 533.639,18.46 531.966,12.853C531.993,9.454 531.6,7.511 531.6,7.511L525.88,24.237L512.156,17.435C514.62,30.93 527.549,60.108 591.003,81.187C681.902,111.383 647.72,185.213 647.299,181.461C647.299,181.461 515.268,126.002 376.071,181.461C372.563,182.858 341.909,112.678 432.367,81.187C495.923,59.062 508.753,30.037 511.2,16.961ZM667.121,178.288L667.249,179.223C667.213,178.909 667.171,178.598 667.121,178.288C666.25,172.502 663.527,168.927 660.785,166.594C662.568,168.21 664.046,170.134 665.146,172.271C666.108,174.136 666.782,176.163 667.121,178.288Z" style="fill:white;"/>
                    </g>
                </g>
            </g>
            <g transform="matrix(0.609908,0.250585,-0.250585,0.609908,328.016,72.1785)">
                <g>
                    <path d="M508.484,25.758C502.225,40.595 484.102,63.177 432.367,81.187C341.909,112.678 372.563,182.858 376.071,181.461C515.268,126.002 647.299,181.461 647.299,181.461C647.72,185.213 681.902,111.383 591.003,81.187C546.926,66.545 527.228,47.996 518.495,33.495L522.636,36.695L540.27,6.408C540.27,6.408 540.688,8.482 540.644,12.181C542.398,15.67 555.663,39.084 600.087,53.841C643.163,68.151 663.91,91.167 674.064,112.92C691.007,149.219 678.163,185.516 673.747,193.86C667.787,205.119 659.262,207.991 656.803,208.838C648.089,211.838 640.645,210.614 634.358,207.324C618.94,201.354 505.683,160.839 386.737,208.229C380.941,210.538 362.298,214.736 349.983,195.219C343.881,185.548 330.664,149.114 349.058,112.234C359.572,91.153 380.569,68.708 422.894,53.974C467.117,38.579 480.733,15.502 482.671,11.79C482.699,8.193 483.132,6.164 483.132,6.164L508.484,25.758ZM675.694,176.563C675.791,177.121 675.871,177.682 675.934,178.248L675.694,176.563C674.261,168.244 669.253,161.006 662.064,156.722C665.074,158.368 668.2,160.699 670.743,164.143C673.047,167.263 674.874,171.296 675.694,176.563Z" style="fill:white;"/>
                    <g transform="matrix(1,0,0,-1,0,1026.7)">
                        <path d="M482.671,11.79C480.733,15.502 467.117,38.579 422.894,53.974C380.569,68.708 359.572,91.153 349.058,112.234C330.664,149.114 343.881,185.548 349.983,195.219C362.298,214.736 380.941,210.538 386.737,208.229C505.185,161.037 617.99,201.015 634.16,207.243L634.149,207.237C634.941,207.622 635.717,207.963 636.463,208.268C640.055,209.736 662,216.054 673.747,193.86C678.163,185.516 691.007,149.219 674.064,112.92C663.91,91.167 643.163,68.151 600.087,53.841C555.663,39.084 542.398,15.67 540.644,12.181C540.688,8.482 540.27,6.408 540.27,6.408L540.147,5.529L539.962,4.497C539.847,3.912 539.714,3.332 539.56,2.757L539.492,2.501C539.341,1.945 539.174,1.394 538.993,0.848L538.643,-0.137L538.272,-1.061C538.062,-1.565 537.838,-2.062 537.598,-2.551L537.21,-3.329L536.628,-4.384L536.046,-5.348L535.653,-5.954L535.569,-6.071C535.261,-6.528 534.94,-6.976 534.607,-7.415L534.002,-8.187L533.341,-8.964C532.963,-9.395 532.572,-9.816 532.166,-10.222L531.988,-10.4C531.164,-11.222 530.286,-11.996 529.357,-12.714L529.178,-12.853C528.719,-13.204 528.249,-13.543 527.766,-13.867L526.948,-14.401L526.045,-14.938C525.555,-15.221 525.054,-15.49 524.54,-15.741L523.759,-16.122L522.636,-16.611L483.132,6.164C483.132,6.164 482.699,8.193 482.671,11.79ZM511.663,13.49C511.843,11.284 511.685,10.042 511.685,10.042C511.685,10.042 511.516,11.287 511.663,13.49C510.836,24.068 502.379,56.814 432.367,81.187C341.909,112.678 372.563,182.858 376.071,181.461C515.268,126.002 647.299,181.461 647.299,181.461C647.72,185.213 681.902,111.383 591.003,81.187C520.371,57.724 512.342,24.226 511.663,13.49ZM675.736,176.812L675.934,178.248C675.88,177.766 675.814,177.288 675.736,176.812C674.362,167.849 669.898,162.584 665.655,159.268C668.496,161.609 670.855,164.472 672.609,167.69C674.138,170.497 675.208,173.574 675.736,176.812Z" style="fill:white;"/>
                    </g>
                </g>
                <g transform="matrix(0.707107,0.707107,-0.707107,0.707107,512.693,-211.049)">
                    <path d="M511.692,13.923L538.275,21.145L540.27,6.408C540.27,6.408 540.688,8.482 540.644,12.181C542.398,15.67 555.663,39.084 600.087,53.841C643.163,68.151 663.91,91.167 674.064,112.92C691.007,149.219 678.163,185.516 673.747,193.86C667.787,205.119 659.262,207.991 656.803,208.838C648.089,211.838 640.645,210.614 634.358,207.324C618.94,201.354 505.683,160.839 386.737,208.229C380.941,210.538 362.298,214.736 349.983,195.219C343.881,185.548 330.664,149.114 349.058,112.234C359.572,91.153 380.569,68.708 422.894,53.974C467.117,38.579 480.733,15.502 482.671,11.79C482.699,8.193 483.132,6.164 483.132,6.164L511.63,13.907C510.609,24.906 501.483,57.127 432.367,81.187C341.909,112.678 372.563,182.858 376.071,181.461C515.268,126.002 647.299,181.461 647.299,181.461C647.72,185.213 681.902,111.383 591.003,81.187C521.291,58.029 512.562,25.097 511.692,13.923ZM675.694,176.563C675.791,177.121 675.871,177.682 675.934,178.248L675.694,176.563C674.261,168.244 669.253,161.006 662.064,156.722C665.074,158.368 668.2,160.699 670.743,164.143C673.047,167.263 674.874,171.296 675.694,176.563Z" style="fill:white;"/>
                    <g transform="matrix(1,0,0,-1,0,1026.7)">
                        <path d="M482.671,11.79C480.733,15.502 467.117,38.579 422.894,53.974C380.569,68.708 359.572,91.153 349.058,112.234C330.664,149.114 343.881,185.548 349.983,195.219C362.298,214.736 380.941,210.538 386.737,208.229C505.165,161.045 617.953,201.002 634.152,207.24L634.149,207.237C634.941,207.622 635.717,207.963 636.463,208.268C640.055,209.736 662,216.054 673.747,193.86C678.163,185.516 691.007,149.219 674.064,112.92C663.91,91.167 643.163,68.151 600.087,53.841C555.663,39.084 542.398,15.67 540.644,12.181C540.688,8.482 540.27,6.408 540.27,6.408L538.275,-1.061L483.132,6.164C483.132,6.164 482.699,8.193 482.671,11.79ZM675.736,176.812L675.934,178.248C675.88,177.766 675.814,177.288 675.736,176.812C674.362,167.849 669.898,162.584 665.655,159.268C668.496,161.609 670.855,164.472 672.609,167.69C674.138,170.497 675.208,173.574 675.736,176.812ZM511.663,13.49C511.843,11.284 511.685,10.042 511.685,10.042C511.685,10.042 511.516,11.287 511.663,13.49C510.836,24.068 502.379,56.814 432.367,81.187C341.909,112.678 372.563,182.858 376.071,181.461C515.268,126.002 647.299,181.461 647.299,181.461C647.72,185.213 681.902,111.383 591.003,81.187C520.371,57.724 512.342,24.226 511.663,13.49Z" style="fill:white;"/>
                    </g>
                </g>
                <g transform="matrix(2.22045e-16,1,-1,2.22045e-16,1024.45,2.24583)">
                    <path d="M540.27,6.408C540.27,6.408 540.688,8.482 540.644,12.181C542.398,15.67 555.663,39.084 600.087,53.841C643.163,68.151 663.91,91.167 674.064,112.92C691.007,149.219 678.163,185.516 673.747,193.86C667.787,205.119 659.262,207.991 656.803,208.838C648.089,211.838 640.645,210.614 634.358,207.324C618.94,201.354 505.683,160.839 386.737,208.229C380.941,210.538 362.298,214.736 349.983,195.219C343.881,185.548 330.664,149.114 349.058,112.234C359.572,91.153 380.569,68.708 422.894,53.974C467.117,38.579 480.733,15.502 482.671,11.79C482.699,8.193 483.132,6.164 483.132,6.164L483.185,5.762L483.406,4.486L483.683,3.226L484.016,1.984L484.402,0.762L484.552,0.335L484.841,-0.439L484.973,-0.77L485.437,-1.853L485.89,-2.801C486.448,-3.922 487.078,-5.002 487.772,-6.034L488.37,-6.892L489.071,-7.817L489.809,-8.713L490.126,-9.077L490.581,-9.577L490.991,-10.012L491.899,-10.909L492.847,-11.766L493.835,-12.583L494.861,-13.357C495.216,-13.6 495.57,-13.843 495.925,-14.086L497.025,-14.77L498.161,-15.407L498.926,-15.797L499.331,-15.994L499.989,-16.295L500.533,-16.53L501.075,-16.751L502.184,-17.164L503.313,-17.532L504.358,-17.825C505.179,-18.042 506.015,-18.223 506.864,-18.366L508.266,-18.572L509.577,-18.699L510.884,-18.766L512.186,-18.773L513.48,-18.721L514.765,-18.612L516.04,-18.446L517.302,-18.223L518.608,-17.93C519.402,-17.734 520.185,-17.504 520.957,-17.241L521.991,-16.868L523.067,-16.43L524.123,-15.951L525.158,-15.429L525.639,-15.169L526.172,-14.867L526.738,-14.529L527.162,-14.264L527.808,-13.841L528.848,-13.106L529.856,-12.324L530.831,-11.497C531.144,-11.206 531.457,-10.915 531.77,-10.625L532.672,-9.709L533.535,-8.75L534.087,-8.086L534.358,-7.749L534.809,-7.155L535.137,-6.707L535.495,-6.191L535.873,-5.624L536.144,-5.196L536.563,-4.502L536.753,-4.169L537.205,-3.342L537.852,-2.025L538.338,-0.908L540.27,6.408ZM675.694,176.563C675.791,177.121 675.871,177.682 675.934,178.248L675.694,176.563C674.261,168.244 669.253,161.006 662.064,156.722C665.074,158.368 668.2,160.699 670.743,164.143C673.047,167.263 674.874,171.296 675.694,176.563ZM511.663,13.49C510.836,24.068 502.379,56.814 432.367,81.187C341.909,112.678 372.563,182.858 376.071,181.461C515.268,126.002 647.299,181.461 647.299,181.461C647.72,185.213 681.902,111.383 591.003,81.187C520.371,57.724 512.342,24.226 511.663,13.49C511.843,11.284 511.685,10.042 511.685,10.042C511.685,10.042 511.516,11.287 511.663,13.49Z" style="fill:white;"/>
                    <g transform="matrix(1,0,0,-1,0,1026.7)">
                        <path d="M501.961,37.161L501.79,37.103L501.394,36.953L500.63,36.65L500.162,36.45L499.513,36.157L498.981,35.905L498.442,35.631L497.848,35.318L496.757,34.691L495.749,34.051C495.429,33.829 495.11,33.607 494.79,33.386L493.858,32.681L492.912,31.901L491.996,31.078L491.456,30.557L491.108,30.209L490.637,29.715L490.25,29.293L489.844,28.833L489.42,28.325L489.084,27.911L488.357,26.953L487.665,25.958L487.007,24.918C486.795,24.549 486.584,24.181 486.372,23.812L485.799,22.702L485.288,21.597L484.827,20.478L484.415,19.348L484.209,18.714L484.054,18.21L483.846,17.468L483.741,17.064L483.543,16.223L483.476,15.907L483.298,14.981L483.097,13.635L482.937,11.284L482.9,11.355C482.82,9.647 482.895,7.911 483.132,6.164C483.132,6.164 482.699,8.193 482.671,11.79C480.733,15.502 467.117,38.579 422.894,53.974C380.569,68.708 359.572,91.153 349.058,112.234C330.664,149.114 343.881,185.548 349.983,195.219C362.298,214.736 380.941,210.538 386.737,208.229C505.185,161.037 617.99,201.015 634.16,207.243L634.149,207.237C634.941,207.622 635.717,207.963 636.463,208.268C640.055,209.736 662,216.054 673.747,193.86C678.163,185.516 691.007,149.219 674.064,112.92C663.91,91.167 643.163,68.151 600.087,53.841C555.663,39.084 542.398,15.67 540.644,12.181C540.688,8.482 540.27,6.408 540.27,6.408L538.338,20.993L537.821,22.172L537.26,23.314L536.655,24.419L536.339,24.951L536.01,25.486L535.652,26.034L535.325,26.515L534.929,27.07L534.603,27.505L534.169,28.063L533.847,28.455L533.374,29.015L532.543,29.925L531.688,30.786C531.402,31.05 531.116,31.315 530.83,31.579L529.912,32.36L528.942,33.117L527.938,33.833L527.439,34.163L526.902,34.507L526.416,34.802L525.835,35.138L525.362,35.4L524.737,35.726L524.28,35.955L523.606,36.27L523.172,36.466L522.039,36.931L520.982,37.314C530.786,51.149 550.706,67.801 591.003,81.187C681.902,111.383 647.72,185.213 647.299,181.461C647.299,181.461 515.268,126.002 376.071,181.461C372.563,182.858 341.909,112.678 432.367,81.187C472.12,67.348 492.028,50.81 501.961,37.161ZM675.736,176.812L675.934,178.248C675.88,177.766 675.814,177.288 675.736,176.812C674.362,167.849 669.898,162.584 665.655,159.268C668.496,161.609 670.855,164.472 672.609,167.69C674.138,170.497 675.208,173.574 675.736,176.812Z" style="fill:white;"/>
                    </g>
                </g>
                <g transform="matrix(-0.707107,0.707107,-0.707107,-0.707107,1235.5,514.938)">
                    <path d="M540.27,6.408C540.27,6.408 540.688,8.482 540.644,12.181C542.398,15.67 555.663,39.084 600.087,53.841C643.163,68.151 663.91,91.167 674.064,112.92C691.007,149.219 678.163,185.516 673.747,193.86C667.787,205.119 659.262,207.991 656.803,208.838C648.089,211.838 640.645,210.614 634.358,207.324C618.94,201.354 505.683,160.839 386.737,208.229C380.941,210.538 362.298,214.736 349.983,195.219C343.881,185.548 330.664,149.114 349.058,112.234C359.572,91.153 380.569,68.708 422.894,53.974C467.117,38.579 480.733,15.502 482.671,11.79C482.699,8.193 483.132,6.164 483.132,6.164L522.788,-16.548L540.27,6.408ZM511.663,13.49C510.836,24.068 502.379,56.814 432.367,81.187C341.909,112.678 372.563,182.858 376.071,181.461C515.268,126.002 647.299,181.461 647.299,181.461C647.72,185.213 681.902,111.383 591.003,81.187C520.371,57.724 512.342,24.226 511.663,13.49C511.843,11.284 511.685,10.042 511.685,10.042C511.685,10.042 511.516,11.287 511.663,13.49ZM675.694,176.563C674.261,168.244 669.253,161.006 662.064,156.722C665.074,158.368 668.2,160.699 670.743,164.143C673.047,167.263 674.874,171.296 675.694,176.563C675.791,177.121 675.871,177.682 675.934,178.248L675.694,176.563Z" style="fill:white;"/>
                    <g transform="matrix(1,0,0,-1,0,1026.7)">
                        <path d="M508.522,25.671L483.132,6.164C483.132,6.164 482.699,8.193 482.671,11.79C480.733,15.502 467.117,38.579 422.894,53.974C380.569,68.708 359.572,91.153 349.058,112.234C330.664,149.114 343.881,185.548 349.983,195.219C362.298,214.736 380.941,210.538 386.737,208.229C505.165,161.045 617.953,201.002 634.152,207.24L634.149,207.237C634.941,207.622 635.717,207.963 636.463,208.268C640.055,209.736 662,216.054 673.747,193.86C678.163,185.516 691.007,149.219 674.064,112.92C663.91,91.167 643.163,68.151 600.087,53.841C555.663,39.084 542.398,15.67 540.644,12.181C540.688,8.482 540.27,6.408 540.27,6.408C540.5,8.219 540.556,10.02 540.443,11.79L540.421,11.748L540.242,13.873L540.22,14.023L539.919,15.801L539.513,17.505L539.445,17.757L538.946,19.373L538.87,19.585L538.318,21.03L538.226,21.257L537.552,22.727L537.386,23.06L536.612,24.496L535.721,25.924L535.54,26.199L534.589,27.522L534.429,27.727L533.338,29.053L532.177,30.295L531.996,30.476L530.739,31.659L529.404,32.761L529.228,32.898L527.841,33.9L527.668,34.014L526.298,34.873L526.144,34.965L524.664,35.764L524.345,35.921L522.788,36.632L518.31,33.192C526.948,47.73 546.611,66.44 591.003,81.187C681.902,111.383 647.72,185.213 647.299,181.461C647.299,181.461 515.268,126.002 376.071,181.461C372.563,182.858 341.909,112.678 432.367,81.187C484.204,63.142 502.296,40.506 508.522,25.671ZM675.736,176.812L675.934,178.248C675.88,177.766 675.814,177.288 675.736,176.812C674.362,167.849 669.898,162.584 665.655,159.268C668.496,161.609 670.855,164.472 672.609,167.69C674.138,170.497 675.208,173.574 675.736,176.812Z" style="fill:white;"/>
                    </g>
                </g>
            </g>
            <g transform="matrix(0.52923,0.217438,-0.217438,0.52923,352.235,130.536)">
                <g>
                    <path d="M507.559,27.816C500.521,42.625 481.767,63.99 432.367,81.187C341.909,112.678 372.563,182.858 376.071,181.461C515.268,126.002 647.299,181.461 647.299,181.461C647.72,185.213 681.902,111.383 591.003,81.187C552.716,68.468 532.824,52.801 522.54,39.394L524.305,40.758L544.628,5.855C544.628,5.855 545.067,7.975 545.059,11.768C546.981,15.175 560.187,35.958 601.472,49.673C646.127,64.507 667.518,88.512 678.044,111.062C695.806,149.116 682.259,187.167 677.629,195.915C670.819,208.781 661.042,212.024 658.233,212.991C648.258,216.425 639.729,215.055 632.513,211.322C616.674,205.215 505.306,165.718 388.362,212.31C381.733,214.951 360.356,219.891 346.268,197.563C339.849,187.39 325.779,149.068 345.127,110.274C356.011,88.451 377.637,65.078 421.45,49.825C462.601,35.5 476.138,14.957 478.255,11.328C478.325,7.645 478.779,5.573 478.779,5.573L507.559,27.816ZM680.021,175.806C680.133,176.45 680.226,177.102 680.299,177.758L680.021,175.806C678.357,166.167 672.531,157.791 664.178,152.863C667.667,154.753 671.3,157.437 674.26,161.418C676.94,165.024 679.068,169.694 680.021,175.806Z" style="fill:white;"/>
                    <g transform="matrix(1,0,0,-1,0,1026.7)">
                        <path d="M478.255,11.328C476.138,14.957 462.601,35.5 421.45,49.825C377.637,65.078 356.011,88.451 345.127,110.274C325.779,149.068 339.849,187.39 346.268,197.563C360.356,219.891 381.733,214.951 388.362,212.31C504.924,165.87 615.946,204.957 632.358,211.254L632.351,211.25C633.189,211.651 634.01,212.01 634.801,212.334C638.924,214.018 664.149,221.383 677.629,195.915C682.259,187.167 695.806,149.116 678.044,111.062C667.518,88.512 646.127,64.507 601.472,49.673C560.187,35.958 546.981,15.175 545.059,11.768C545.067,7.975 544.628,5.855 544.628,5.855L544.486,4.842L544.272,3.652C544.14,2.978 543.987,2.309 543.81,1.647L543.731,1.352C543.557,0.71 543.365,0.075 543.156,-0.554L542.753,-1.689L542.325,-2.754C542.083,-3.334 541.825,-3.907 541.548,-4.47L541.101,-5.367L540.43,-6.583L539.76,-7.694L539.306,-8.392L539.209,-8.527C538.855,-9.054 538.485,-9.571 538.101,-10.076L537.404,-10.966L536.642,-11.862C536.207,-12.359 535.757,-12.843 535.288,-13.311L535.083,-13.516C534.133,-14.463 533.122,-15.355 532.051,-16.183L531.845,-16.343C531.316,-16.748 530.774,-17.139 530.217,-17.511L529.274,-18.127L528.234,-18.746C527.669,-19.073 527.091,-19.383 526.5,-19.672L525.599,-20.11L524.305,-20.674L478.779,5.573C478.779,5.573 478.325,7.645 478.255,11.328ZM511.663,13.49C511.843,11.284 511.685,10.042 511.685,10.042C511.685,10.042 511.516,11.287 511.663,13.49C510.836,24.068 502.379,56.814 432.367,81.187C341.909,112.678 372.563,182.858 376.071,181.461C515.268,126.002 647.299,181.461 647.299,181.461C647.72,185.213 681.902,111.383 591.003,81.187C520.371,57.724 512.342,24.226 511.663,13.49ZM680.068,176.09L680.299,177.758C680.236,177.198 680.16,176.642 680.068,176.09C678.467,165.659 673.237,159.572 668.302,155.757C671.618,158.458 674.373,161.773 676.42,165.505C678.205,168.759 679.454,172.33 680.068,176.09Z" style="fill:white;"/>
                    </g>
                </g>
                <g transform="matrix(0.707107,0.707107,-0.707107,0.707107,512.693,-211.049)">
                    <path d="M511.747,14.53L542.328,22.838L544.628,5.855C544.628,5.855 545.067,7.975 545.059,11.768C546.981,15.175 560.187,35.958 601.472,49.673C646.127,64.507 667.518,88.512 678.044,111.062C695.806,149.116 682.259,187.167 677.629,195.915C670.819,208.781 661.042,212.024 658.233,212.991C648.258,216.425 639.729,215.055 632.513,211.322C616.674,205.215 505.306,165.718 388.362,212.31C381.733,214.951 360.356,219.891 346.268,197.563C339.849,187.39 325.779,149.068 345.127,110.274C356.011,88.451 377.637,65.078 421.45,49.825C462.601,35.5 476.138,14.957 478.255,11.328C478.325,7.645 478.779,5.573 478.779,5.573L511.568,14.481C510.283,25.993 500.315,57.533 432.367,81.187C341.909,112.678 372.563,182.858 376.071,181.461C515.268,126.002 647.299,181.461 647.299,181.461C647.72,185.213 681.902,111.383 591.003,81.187C522.517,58.436 512.888,26.252 511.747,14.53ZM680.021,175.806C680.133,176.45 680.226,177.102 680.299,177.758L680.021,175.806C678.357,166.167 672.531,157.791 664.178,152.863C667.667,154.753 671.3,157.437 674.26,161.418C676.94,165.024 679.068,169.694 680.021,175.806Z" style="fill:white;"/>
                    <g transform="matrix(1,0,0,-1,0,1026.7)">
                        <path d="M478.255,11.328C476.138,14.957 462.601,35.5 421.45,49.825C377.637,65.078 356.011,88.451 345.127,110.274C325.779,149.068 339.849,187.39 346.268,197.563C360.356,219.891 381.733,214.951 388.362,212.31C504.924,165.87 615.946,204.957 632.358,211.254L632.351,211.25C633.189,211.651 634.01,212.01 634.801,212.334C638.924,214.018 664.149,221.383 677.629,195.915C682.259,187.167 695.806,149.116 678.044,111.062C667.518,88.512 646.127,64.507 601.472,49.673C560.187,35.958 546.981,15.175 545.059,11.768C545.067,7.975 544.628,5.855 544.628,5.855L544.271,3.648L543.754,1.42L543.112,-0.687L542.328,-2.754L478.779,5.573C478.779,5.573 478.325,7.645 478.255,11.328ZM680.068,176.09L680.299,177.758C680.236,177.198 680.16,176.642 680.068,176.09C678.467,165.659 673.237,159.572 668.302,155.757C671.618,158.458 674.373,161.773 676.42,165.505C678.205,168.759 679.454,172.33 680.068,176.09ZM511.663,13.49C511.843,11.284 511.685,10.042 511.685,10.042C511.685,10.042 511.516,11.287 511.663,13.49C510.836,24.068 502.379,56.814 432.367,81.187C341.909,112.678 372.563,182.858 376.071,181.461C515.268,126.002 647.299,181.461 647.299,181.461C647.72,185.213 681.902,111.383 591.003,81.187C520.371,57.724 512.342,24.226 511.663,13.49Z" style="fill:white;"/>
                    </g>
                </g>
                <g transform="matrix(2.22045e-16,1,-1,2.22045e-16,1024.45,2.24583)">
                    <path d="M544.628,5.855C544.628,5.855 545.067,7.975 545.059,11.768C546.981,15.175 560.187,35.958 601.472,49.673C646.127,64.507 667.518,88.512 678.044,111.062C695.806,149.116 682.259,187.167 677.629,195.915C670.819,208.781 661.042,212.024 658.233,212.991C648.258,216.425 639.729,215.055 632.513,211.322C616.674,205.215 505.306,165.718 388.362,212.31C381.733,214.951 360.356,219.891 346.268,197.563C339.849,187.39 325.779,149.068 345.127,110.274C356.011,88.451 377.637,65.078 421.45,49.825C462.601,35.5 476.138,14.957 478.255,11.328C478.325,7.645 478.779,5.573 478.779,5.573L478.84,5.11L479.095,3.639L479.415,2.187L479.798,0.755L480.243,-0.653L480.415,-1.144L480.749,-2.037L480.901,-2.418L481.436,-3.666L481.958,-4.758C482.601,-6.051 483.326,-7.296 484.127,-8.484L484.815,-9.473L485.624,-10.54L486.474,-11.572L486.839,-11.992L487.364,-12.568L487.837,-13.069L488.882,-14.103L489.975,-15.091L491.114,-16.032L492.296,-16.924C492.705,-17.204 493.114,-17.484 493.522,-17.765L494.79,-18.553L496.099,-19.286L496.981,-19.736L497.447,-19.963L498.206,-20.31L498.833,-20.581L499.458,-20.836L500.735,-21.311L502.037,-21.735L503.241,-22.073C504.187,-22.323 505.151,-22.532 506.129,-22.697L507.745,-22.934L509.256,-23.08L510.762,-23.157L512.262,-23.166L513.754,-23.106L515.235,-22.98L516.704,-22.789L518.159,-22.532L519.663,-22.194C520.578,-21.968 521.481,-21.703 522.37,-21.4L523.562,-20.97L524.802,-20.466L526.019,-19.913L527.212,-19.312L527.766,-19.012L528.38,-18.664L529.032,-18.275L529.521,-17.969L530.266,-17.482L531.465,-16.635L532.627,-15.734L533.75,-14.78C534.11,-14.445 534.471,-14.11 534.832,-13.775L535.872,-12.72L536.866,-11.615L537.502,-10.849L537.814,-10.461L538.334,-9.776L538.713,-9.26L539.125,-8.666L539.56,-8.012L539.872,-7.519L540.355,-6.719L540.575,-6.335L541.095,-5.382L541.841,-3.864L542.401,-2.578L544.628,5.855ZM680.021,175.806C680.133,176.45 680.226,177.102 680.299,177.758L680.021,175.806C678.357,166.167 672.531,157.791 664.178,152.863C667.667,154.753 671.3,157.437 674.26,161.418C676.94,165.024 679.068,169.694 680.021,175.806ZM511.663,13.49C510.836,24.068 502.379,56.814 432.367,81.187C341.909,112.678 372.563,182.858 376.071,181.461C515.268,126.002 647.299,181.461 647.299,181.461C647.72,185.213 681.902,111.383 591.003,81.187C520.371,57.724 512.342,24.226 511.663,13.49C511.843,11.284 511.685,10.042 511.685,10.042C511.685,10.042 511.516,11.287 511.663,13.49Z" style="fill:white;"/>
                    <g transform="matrix(1,0,0,-1,0,1026.7)">
                        <path d="M511.58,14.383L478.779,5.573C478.779,5.573 478.325,7.645 478.255,11.328C476.138,14.957 462.601,35.5 421.45,49.825C377.637,65.078 356.011,88.451 345.127,110.274C325.779,149.068 339.849,187.39 346.268,197.563C360.356,219.891 381.733,214.951 388.362,212.31C504.924,165.87 615.946,204.957 632.358,211.254L632.351,211.25C633.189,211.651 634.01,212.01 634.801,212.334C638.924,214.018 664.149,221.383 677.629,195.915C682.259,187.167 695.806,149.116 678.044,111.062C667.518,88.512 646.127,64.507 601.472,49.673C560.187,35.958 546.981,15.175 545.059,11.768C545.067,7.975 544.628,5.855 544.628,5.855C544.862,7.699 544.94,9.552 544.848,11.396L544.791,11.294L544.593,14.478L544.246,16.554L543.763,18.626L543.148,20.664L542.401,22.662L511.735,14.425C512.831,26.06 522.313,58.369 591.003,81.187C681.902,111.383 647.72,185.213 647.299,181.461C647.299,181.461 515.268,126.002 376.071,181.461C372.563,182.858 341.909,112.678 432.367,81.187C500.509,57.465 510.34,25.812 511.58,14.383ZM680.068,176.09L680.299,177.758C680.236,177.198 680.16,176.642 680.068,176.09C678.467,165.659 673.237,159.572 668.302,155.757C671.618,158.458 674.373,161.773 676.42,165.505C678.205,168.759 679.454,172.33 680.068,176.09Z" style="fill:white;"/>
                    </g>
                </g>
                <g transform="matrix(-0.707107,0.707107,-0.707107,-0.707107,1235.5,514.938)">
                    <path d="M544.628,5.855C544.628,5.855 545.067,7.975 545.059,11.768C546.981,15.175 560.187,35.958 601.472,49.673C646.127,64.507 667.518,88.512 678.044,111.062C695.806,149.116 682.259,187.167 677.629,195.915C670.819,208.781 661.042,212.024 658.233,212.991C648.258,216.425 639.729,215.055 632.513,211.322C616.674,205.215 505.306,165.718 388.362,212.31C381.733,214.951 360.356,219.891 346.268,197.563C339.849,187.39 325.779,149.068 345.127,110.274C356.011,88.451 377.637,65.078 421.45,49.825C462.601,35.5 476.138,14.957 478.255,11.328C478.325,7.645 478.779,5.573 478.779,5.573L524.481,-20.601L544.628,5.855ZM511.663,13.49C510.836,24.068 502.379,56.814 432.367,81.187C341.909,112.678 372.563,182.858 376.071,181.461C515.268,126.002 647.299,181.461 647.299,181.461C647.72,185.213 681.902,111.383 591.003,81.187C520.371,57.724 512.342,24.226 511.663,13.49C511.843,11.284 511.685,10.042 511.685,10.042C511.685,10.042 511.516,11.287 511.663,13.49ZM680.021,175.806C678.357,166.167 672.531,157.791 664.178,152.863C667.667,154.753 671.3,157.437 674.26,161.418C676.94,165.024 679.068,169.694 680.021,175.806C680.133,176.45 680.226,177.102 680.299,177.758L680.021,175.806Z" style="fill:white;"/>
                    <g transform="matrix(1,0,0,-1,0,1026.7)">
                        <path d="M507.606,27.721L478.779,5.573C478.779,5.573 478.325,7.645 478.255,11.328C476.138,14.957 462.601,35.5 421.45,49.825C377.637,65.078 356.011,88.451 345.127,110.274C325.779,149.068 339.849,187.39 346.268,197.563C360.356,219.891 381.733,214.951 388.362,212.31C504.924,165.87 615.946,204.957 632.358,211.254L632.351,211.25C633.189,211.651 634.01,212.01 634.801,212.334C638.924,214.018 664.149,221.383 677.629,195.915C682.259,187.167 695.806,149.116 678.044,111.062C667.518,88.512 646.127,64.507 601.472,49.673C560.187,35.958 546.981,15.175 545.059,11.768C545.067,7.975 544.628,5.855 544.628,5.855L524.481,40.685L522.174,38.913C532.349,52.425 552.256,68.316 591.003,81.187C681.902,111.383 647.72,185.213 647.299,181.461C647.299,181.461 515.268,126.002 376.071,181.461C372.563,182.858 341.909,112.678 432.367,81.187C481.868,63.955 500.598,42.537 507.606,27.721ZM680.068,176.09L680.299,177.758C680.236,177.198 680.16,176.642 680.068,176.09C678.467,165.659 673.237,159.572 668.302,155.757C671.618,158.458 674.373,161.773 676.42,165.505C678.205,168.759 679.454,172.33 680.068,176.09Z" style="fill:white;"/>
                    </g>
                </g>
            </g>
            <g transform="matrix(1,0,0,1,0,30.7689)">
                <path d="M1143.31,73.914L1143.31,888.548" style="fill:none;stroke:white;stroke-width:12px;"/>
            </g>
        </g>
        <g transform="matrix(10.8557,0,0,1.81488,-12322.3,-12.1139)">
            <path d="M1268.53,256.332L1264.95,225.388L1261,225.388L1261,256.332L1256.7,256.332L1256.7,145.25L1264.74,145.25C1266.38,145.25 1267.81,146.89 1269.02,150.17C1270.23,153.449 1271.17,158.104 1271.82,164.134C1272.48,170.164 1272.8,177.305 1272.8,185.557C1272.8,193.809 1272.47,200.923 1271.81,206.9C1271.14,212.878 1270.2,217.453 1268.98,220.627L1273.15,256.332L1268.53,256.332ZM1268.45,185.557C1268.45,179.315 1268.12,174.528 1267.44,171.196C1266.77,167.863 1265.79,166.197 1264.5,166.197L1261,166.197L1261,204.917L1264.5,204.917C1265.79,204.917 1266.77,203.224 1267.44,199.839C1268.12,196.453 1268.45,191.693 1268.45,185.557Z" style="fill:white;fill-rule:nonzero;"/>
            <path d="M1288.43,232.529L1279.81,232.529L1278.16,256.332L1273.76,256.332L1282.04,145.25L1286.28,145.25L1294.58,256.332L1290.07,256.332L1288.43,232.529ZM1287.08,213.01L1284.13,170.482L1281.19,213.01L1287.08,213.01Z" style="fill:white;fill-rule:nonzero;"/>
            <path d="M1300.34,258.236C1299.09,258.236 1297.93,256.834 1296.88,254.031C1295.83,251.227 1294.96,247.234 1294.29,242.05L1296.68,224.912C1297.69,233.057 1298.84,237.13 1300.13,237.13C1301.88,237.13 1302.76,230.995 1302.76,218.723L1302.76,165.88L1296.23,165.88L1296.23,145.25L1307.03,145.25L1307.03,217.294C1307.03,230.942 1306.46,241.177 1305.33,248.001C1304.2,254.824 1302.53,258.236 1300.34,258.236Z" style="fill:white;fill-rule:nonzero;"/>
            <path d="M1325.65,235.702L1325.65,256.332L1311.27,256.332L1311.27,145.25L1325.31,145.25L1325.31,165.88L1315.54,165.88L1315.54,190L1324.16,190L1324.16,209.995L1315.54,209.995L1315.54,235.702L1325.65,235.702Z" style="fill:white;fill-rule:nonzero;"/>
            <path d="M1335.17,258.236C1333.71,258.236 1332.29,257.046 1330.92,254.665C1329.55,252.285 1328.44,249.191 1327.61,245.382L1329.07,226.022C1329.87,229.513 1330.82,232.317 1331.91,234.433C1333.01,236.549 1334.11,237.607 1335.2,237.607C1336.42,237.607 1337.32,236.522 1337.91,234.353C1338.49,232.185 1338.78,229.302 1338.78,225.705C1338.78,223.06 1338.61,220.865 1338.27,219.119C1337.92,217.374 1337.48,215.972 1336.94,214.914C1336.4,213.856 1335.67,212.693 1334.75,211.423C1333.34,209.413 1332.18,207.403 1331.28,205.393C1330.37,203.383 1329.6,200.156 1328.95,195.713C1328.31,191.27 1327.99,185.345 1327.99,177.94C1327.99,171.487 1328.28,165.642 1328.86,160.405C1329.44,155.168 1330.32,151.016 1331.5,147.948C1332.68,144.88 1334.11,143.346 1335.81,143.346C1337,143.346 1338.15,144.192 1339.29,145.885C1340.42,147.578 1341.41,150.011 1342.26,153.185L1340.93,172.703C1339.22,166.885 1337.5,163.975 1335.79,163.975C1334.58,163.975 1333.69,165.139 1333.12,167.467C1332.54,169.794 1332.26,172.862 1332.26,176.67C1332.26,180.479 1332.59,183.309 1333.25,185.16C1333.91,187.012 1334.93,188.836 1336.29,190.635C1337.7,192.645 1338.86,194.655 1339.77,196.665C1340.67,198.675 1341.44,201.849 1342.09,206.186C1342.73,210.524 1343.05,216.395 1343.05,223.801C1343.05,230.148 1342.76,235.94 1342.17,241.177C1341.57,246.414 1340.68,250.566 1339.5,253.634C1338.31,256.702 1336.87,258.236 1335.17,258.236Z" style="fill:white;fill-rule:nonzero;"/>
            <path d="M1363.03,145.25L1363.03,256.332L1358.73,256.332L1358.73,210.788L1350.3,210.788L1350.3,256.332L1346,256.332L1346,145.25L1350.3,145.25L1350.3,189.048L1358.73,189.048L1358.73,145.25L1363.03,145.25Z" style="fill:white;fill-rule:nonzero;"/>
            <path d="M1263.89,383.229L1263.89,421.632L1261.95,421.632L1261.95,383.229L1254.52,310.55L1256.62,310.55L1262.99,372.914L1269.36,310.55L1271.32,310.55L1263.89,383.229Z" style="fill:white;fill-opacity:0.49;fill-rule:nonzero;"/>
            <path d="M1281.69,422.584C1279.85,422.584 1278.18,420.124 1276.69,415.205C1275.2,410.285 1274.03,403.541 1273.19,394.972C1272.35,386.403 1271.93,376.776 1271.93,366.091C1271.93,355.406 1272.35,345.779 1273.19,337.21C1274.03,328.64 1275.2,321.896 1276.69,316.977C1278.18,312.058 1279.85,309.598 1281.69,309.598C1283.53,309.598 1285.19,312.031 1286.66,316.898C1288.14,321.764 1289.31,328.508 1290.15,337.13C1291,345.752 1291.43,355.406 1291.43,366.091C1291.43,376.776 1291,386.429 1290.15,395.051C1289.31,403.673 1288.14,410.418 1286.66,415.284C1285.19,420.15 1283.53,422.584 1281.69,422.584ZM1281.69,412.11C1283.16,412.11 1284.49,410.127 1285.67,406.159C1286.86,402.192 1287.78,396.691 1288.46,389.656C1289.13,382.621 1289.46,374.766 1289.46,366.091C1289.46,357.416 1289.13,349.561 1288.46,342.526C1287.78,335.49 1286.86,329.989 1285.67,326.022C1284.49,322.055 1283.16,320.071 1281.69,320.071C1280.22,320.071 1278.89,322.055 1277.7,326.022C1276.5,329.989 1275.57,335.49 1274.89,342.526C1274.2,349.561 1273.87,357.416 1273.87,366.091C1273.87,374.766 1274.2,382.621 1274.89,389.656C1275.57,396.691 1276.5,402.192 1277.7,406.159C1278.89,410.127 1280.22,412.11 1281.69,412.11Z" style="fill:white;fill-opacity:0.49;fill-rule:nonzero;"/>
            <path d="M1308.91,366.091L1310.79,366.091L1310.79,408.46C1309.93,413.009 1308.9,416.501 1307.72,418.934C1306.53,421.367 1305.29,422.584 1303.98,422.584C1302.12,422.584 1300.45,420.15 1298.96,415.284C1297.48,410.418 1296.31,403.673 1295.46,395.051C1294.61,386.429 1294.19,376.776 1294.19,366.091C1294.19,355.406 1294.61,345.752 1295.46,337.13C1296.31,328.508 1297.48,321.764 1298.96,316.898C1300.45,312.031 1302.13,309.598 1304,309.598C1305.42,309.598 1306.72,310.947 1307.9,313.644C1309.09,316.342 1310.09,320.336 1310.9,325.625L1309.68,333.084C1308.21,324.409 1306.35,320.071 1304.08,320.071C1302.58,320.071 1301.22,322.055 1300.01,326.022C1298.8,329.989 1297.85,335.49 1297.16,342.526C1296.47,349.561 1296.12,357.416 1296.12,366.091C1296.12,374.766 1296.47,382.594 1297.16,389.577C1297.85,396.559 1298.79,402.06 1300,406.08C1301.2,410.1 1302.55,412.11 1304.06,412.11C1305.97,412.11 1307.58,409.254 1308.91,403.541L1308.91,366.091Z" style="fill:white;fill-opacity:0.49;fill-rule:nonzero;"/>
            <path d="M1327.99,391.957L1317.64,391.957L1315.41,421.632L1313.37,421.632L1321.86,310.55L1323.79,310.55L1332.28,421.632L1330.21,421.632L1327.99,391.957ZM1327.27,382.436L1322.81,322.769L1318.36,382.436L1327.27,382.436Z" style="fill:white;fill-opacity:0.49;fill-rule:nonzero;"/>
            <path d="M1343.21,390.37C1342.66,390.37 1342.2,389.206 1341.81,386.879C1341.42,384.551 1341.22,381.642 1341.22,378.151C1341.22,374.766 1341.42,371.936 1341.81,369.661C1342.2,367.387 1342.66,366.249 1343.21,366.249C1343.76,366.249 1344.23,367.387 1344.62,369.661C1345.01,371.936 1345.2,374.766 1345.2,378.151C1345.2,381.536 1345.01,384.419 1344.62,386.8C1344.23,389.18 1343.76,390.37 1343.21,390.37Z" style="fill:white;fill-opacity:0.49;fill-rule:nonzero;"/>
            <path d="M1370.17,366.091L1372.05,366.091L1372.05,408.46C1371.18,413.009 1370.16,416.501 1368.97,418.934C1367.79,421.367 1366.54,422.584 1365.23,422.584C1363.38,422.584 1361.7,420.15 1360.22,415.284C1358.73,410.418 1357.57,403.673 1356.72,395.051C1355.87,386.429 1355.44,376.776 1355.44,366.091C1355.44,355.406 1355.87,345.752 1356.72,337.13C1357.57,328.508 1358.73,321.764 1360.22,316.898C1361.7,312.031 1363.38,309.598 1365.26,309.598C1366.67,309.598 1367.98,310.947 1369.16,313.644C1370.35,316.342 1371.34,320.336 1372.16,325.625L1370.94,333.084C1369.47,324.409 1367.6,320.071 1365.34,320.071C1363.84,320.071 1362.48,322.055 1361.27,326.022C1360.06,329.989 1359.11,335.49 1358.41,342.526C1357.73,349.561 1357.38,357.416 1357.38,366.091C1357.38,374.766 1357.73,382.594 1358.41,389.577C1359.11,396.559 1360.05,402.06 1361.25,406.08C1362.46,410.1 1363.81,412.11 1365.31,412.11C1367.22,412.11 1368.84,409.254 1370.17,403.541L1370.17,366.091Z" style="fill:white;fill-opacity:0.49;fill-rule:nonzero;"/>
            <path d="M1385.08,422.584C1382.67,422.584 1380.8,418.458 1379.45,410.206C1378.11,401.954 1377.44,389.947 1377.44,374.184L1377.44,310.55L1379.4,310.55L1379.4,373.708C1379.4,386.614 1379.89,396.241 1380.86,402.589C1381.83,408.936 1383.24,412.11 1385.08,412.11C1386.93,412.11 1388.35,408.936 1389.32,402.589C1390.3,396.241 1390.78,386.614 1390.78,373.708L1390.78,310.55L1392.69,310.55L1392.69,374.184C1392.69,389.947 1392.02,401.954 1390.69,410.206C1389.35,418.458 1387.48,422.584 1385.08,422.584Z" style="fill:white;fill-opacity:0.49;fill-rule:nonzero;"/>
            <path d="M1411.29,421.632L1407.04,385.927C1406.57,386.244 1406.07,386.403 1405.56,386.403L1400.57,386.403L1400.57,421.632L1398.61,421.632L1398.61,310.55L1405.56,310.55C1407.93,310.55 1409.79,313.935 1411.13,320.706C1412.47,327.477 1413.15,336.786 1413.15,348.635C1413.15,357.31 1412.78,364.636 1412.05,370.613C1411.31,376.591 1410.26,380.902 1408.9,383.546L1413.44,421.632L1411.29,421.632ZM1405.51,376.405C1407.35,376.405 1408.75,373.972 1409.72,369.106C1410.7,364.239 1411.18,357.416 1411.18,348.635C1411.18,339.643 1410.7,332.74 1409.72,327.926C1408.75,323.113 1407.35,320.706 1405.51,320.706L1400.57,320.706L1400.57,376.405L1405.51,376.405Z" style="fill:white;fill-opacity:0.49;fill-rule:nonzero;"/>
            <path d="M1425.27,422.584C1422.87,422.584 1420.99,418.458 1419.65,410.206C1418.3,401.954 1417.63,389.947 1417.63,374.184L1417.63,310.55L1419.59,310.55L1419.59,373.708C1419.59,386.614 1420.08,396.241 1421.05,402.589C1422.03,408.936 1423.43,412.11 1425.27,412.11C1427.13,412.11 1428.54,408.936 1429.52,402.589C1430.49,396.241 1430.97,386.614 1430.97,373.708L1430.97,310.55L1432.88,310.55L1432.88,374.184C1432.88,389.947 1432.22,401.954 1430.88,410.206C1429.55,418.458 1427.67,422.584 1425.27,422.584Z" style="fill:white;fill-opacity:0.49;fill-rule:nonzero;"/>
        </g>
    </g>
</svg>
